<svg width="1404" height="279" viewBox="0 0 1404 279" fill="none" xmlns="http://www.w3.org/2000/svg">
<rect width="1404" height="279" fill="white"/>
<path d="M32.312 52.38H25.508V59.364H20.756V52.38H13.952V47.988H20.756V41.004H25.508V47.988H32.312V52.38Z" fill="#63AEE2"/>
<path d="M79.9079 37.872L72.8879 63H66.9479L62.2319 45.108L57.2999 63L51.3959 63.036L44.6279 37.872H50.0279L54.4559 57.384L59.5679 37.872H65.1839L70.0079 57.276L74.4719 37.872H79.9079ZM94.8628 63.252C92.5108 63.252 90.3508 62.7 88.3828 61.596C86.4148 60.492 84.8548 58.968 83.7028 57.024C82.5508 55.056 81.9748 52.836 81.9748 50.364C81.9748 47.916 82.5508 45.72 83.7028 43.776C84.8548 41.808 86.4148 40.272 88.3828 39.168C90.3508 38.064 92.5108 37.512 94.8628 37.512C97.2388 37.512 99.3988 38.064 101.343 39.168C103.311 40.272 104.859 41.808 105.987 43.776C107.139 45.72 107.715 47.916 107.715 50.364C107.715 52.836 107.139 55.056 105.987 57.024C104.859 58.968 103.311 60.492 101.343 61.596C99.3748 62.7 97.2148 63.252 94.8628 63.252ZM94.8628 58.752C96.3748 58.752 97.7068 58.416 98.8588 57.744C100.011 57.048 100.911 56.064 101.559 54.792C102.207 53.52 102.531 52.044 102.531 50.364C102.531 48.684 102.207 47.22 101.559 45.972C100.911 44.7 100.011 43.728 98.8588 43.056C97.7068 42.384 96.3748 42.048 94.8628 42.048C93.3508 42.048 92.0068 42.384 90.8308 43.056C89.6788 43.728 88.7788 44.7 88.1308 45.972C87.4828 47.22 87.1588 48.684 87.1588 50.364C87.1588 52.044 87.4828 53.52 88.1308 54.792C88.7788 56.064 89.6788 57.048 90.8308 57.744C92.0068 58.416 93.3508 58.752 94.8628 58.752ZM124.424 63L118.88 53.208H116.504V63H111.464V37.872H120.896C122.84 37.872 124.496 38.22 125.864 38.916C127.232 39.588 128.252 40.512 128.924 41.688C129.62 42.84 129.968 44.136 129.968 45.576C129.968 47.232 129.488 48.732 128.528 50.076C127.568 51.396 126.14 52.308 124.244 52.812L130.256 63H124.424ZM116.504 49.428H120.716C122.084 49.428 123.104 49.104 123.776 48.456C124.448 47.784 124.784 46.86 124.784 45.684C124.784 44.532 124.448 43.644 123.776 43.02C123.104 42.372 122.084 42.048 120.716 42.048H116.504V49.428ZM148.711 63L139.567 51.804V63H134.527V37.872H139.567V49.14L148.711 37.872H154.795L144.427 50.328L155.083 63H148.711Z" fill="black"/>
<path d="M234.312 52.38H227.508V59.364H222.756V52.38H215.952V47.988H222.756V41.004H227.508V47.988H234.312V52.38Z" fill="#63AEE2"/>
<path d="M281.908 37.872L274.888 63H268.948L264.232 45.108L259.3 63L253.396 63.036L246.628 37.872H252.028L256.456 57.384L261.568 37.872H267.184L272.008 57.276L276.472 37.872H281.908ZM296.863 63.252C294.511 63.252 292.351 62.7 290.383 61.596C288.415 60.492 286.855 58.968 285.703 57.024C284.551 55.056 283.975 52.836 283.975 50.364C283.975 47.916 284.551 45.72 285.703 43.776C286.855 41.808 288.415 40.272 290.383 39.168C292.351 38.064 294.511 37.512 296.863 37.512C299.239 37.512 301.399 38.064 303.343 39.168C305.311 40.272 306.859 41.808 307.987 43.776C309.139 45.72 309.715 47.916 309.715 50.364C309.715 52.836 309.139 55.056 307.987 57.024C306.859 58.968 305.311 60.492 303.343 61.596C301.375 62.7 299.215 63.252 296.863 63.252ZM296.863 58.752C298.375 58.752 299.707 58.416 300.859 57.744C302.011 57.048 302.911 56.064 303.559 54.792C304.207 53.52 304.531 52.044 304.531 50.364C304.531 48.684 304.207 47.22 303.559 45.972C302.911 44.7 302.011 43.728 300.859 43.056C299.707 42.384 298.375 42.048 296.863 42.048C295.351 42.048 294.007 42.384 292.831 43.056C291.679 43.728 290.779 44.7 290.131 45.972C289.483 47.22 289.159 48.684 289.159 50.364C289.159 52.044 289.483 53.52 290.131 54.792C290.779 56.064 291.679 57.048 292.831 57.744C294.007 58.416 295.351 58.752 296.863 58.752ZM326.424 63L320.88 53.208H318.504V63H313.464V37.872H322.896C324.84 37.872 326.496 38.22 327.864 38.916C329.232 39.588 330.252 40.512 330.924 41.688C331.62 42.84 331.968 44.136 331.968 45.576C331.968 47.232 331.488 48.732 330.528 50.076C329.568 51.396 328.14 52.308 326.244 52.812L332.256 63H326.424ZM318.504 49.428H322.716C324.084 49.428 325.104 49.104 325.776 48.456C326.448 47.784 326.784 46.86 326.784 45.684C326.784 44.532 326.448 43.644 325.776 43.02C325.104 42.372 324.084 42.048 322.716 42.048H318.504V49.428ZM350.711 63L341.567 51.804V63H336.527V37.872H341.567V49.14L350.711 37.872H356.795L346.427 50.328L357.083 63H350.711Z" fill="black"/>
<path d="M436.312 52.38H429.508V59.364H424.756V52.38H417.952V47.988H424.756V41.004H429.508V47.988H436.312V52.38Z" fill="#63AEE2"/>
<path d="M483.908 37.872L476.888 63H470.948L466.232 45.108L461.3 63L455.396 63.036L448.628 37.872H454.028L458.456 57.384L463.568 37.872H469.184L474.008 57.276L478.472 37.872H483.908ZM498.863 63.252C496.511 63.252 494.351 62.7 492.383 61.596C490.415 60.492 488.855 58.968 487.703 57.024C486.551 55.056 485.975 52.836 485.975 50.364C485.975 47.916 486.551 45.72 487.703 43.776C488.855 41.808 490.415 40.272 492.383 39.168C494.351 38.064 496.511 37.512 498.863 37.512C501.239 37.512 503.399 38.064 505.343 39.168C507.311 40.272 508.859 41.808 509.987 43.776C511.139 45.72 511.715 47.916 511.715 50.364C511.715 52.836 511.139 55.056 509.987 57.024C508.859 58.968 507.311 60.492 505.343 61.596C503.375 62.7 501.215 63.252 498.863 63.252ZM498.863 58.752C500.375 58.752 501.707 58.416 502.859 57.744C504.011 57.048 504.911 56.064 505.559 54.792C506.207 53.52 506.531 52.044 506.531 50.364C506.531 48.684 506.207 47.22 505.559 45.972C504.911 44.7 504.011 43.728 502.859 43.056C501.707 42.384 500.375 42.048 498.863 42.048C497.351 42.048 496.007 42.384 494.831 43.056C493.679 43.728 492.779 44.7 492.131 45.972C491.483 47.22 491.159 48.684 491.159 50.364C491.159 52.044 491.483 53.52 492.131 54.792C492.779 56.064 493.679 57.048 494.831 57.744C496.007 58.416 497.351 58.752 498.863 58.752ZM528.424 63L522.88 53.208H520.504V63H515.464V37.872H524.896C526.84 37.872 528.496 38.22 529.864 38.916C531.232 39.588 532.252 40.512 532.924 41.688C533.62 42.84 533.968 44.136 533.968 45.576C533.968 47.232 533.488 48.732 532.528 50.076C531.568 51.396 530.14 52.308 528.244 52.812L534.256 63H528.424ZM520.504 49.428H524.716C526.084 49.428 527.104 49.104 527.776 48.456C528.448 47.784 528.784 46.86 528.784 45.684C528.784 44.532 528.448 43.644 527.776 43.02C527.104 42.372 526.084 42.048 524.716 42.048H520.504V49.428ZM552.711 63L543.567 51.804V63H538.527V37.872H543.567V49.14L552.711 37.872H558.795L548.427 50.328L559.083 63H552.711Z" fill="black"/>
<path d="M638.312 52.38H631.508V59.364H626.756V52.38H619.952V47.988H626.756V41.004H631.508V47.988H638.312V52.38Z" fill="#63AEE2"/>
<path d="M685.908 37.872L678.888 63H672.948L668.232 45.108L663.3 63L657.396 63.036L650.628 37.872H656.028L660.456 57.384L665.568 37.872H671.184L676.008 57.276L680.472 37.872H685.908ZM700.863 63.252C698.511 63.252 696.351 62.7 694.383 61.596C692.415 60.492 690.855 58.968 689.703 57.024C688.551 55.056 687.975 52.836 687.975 50.364C687.975 47.916 688.551 45.72 689.703 43.776C690.855 41.808 692.415 40.272 694.383 39.168C696.351 38.064 698.511 37.512 700.863 37.512C703.239 37.512 705.399 38.064 707.343 39.168C709.311 40.272 710.859 41.808 711.987 43.776C713.139 45.72 713.715 47.916 713.715 50.364C713.715 52.836 713.139 55.056 711.987 57.024C710.859 58.968 709.311 60.492 707.343 61.596C705.375 62.7 703.215 63.252 700.863 63.252ZM700.863 58.752C702.375 58.752 703.707 58.416 704.859 57.744C706.011 57.048 706.911 56.064 707.559 54.792C708.207 53.52 708.531 52.044 708.531 50.364C708.531 48.684 708.207 47.22 707.559 45.972C706.911 44.7 706.011 43.728 704.859 43.056C703.707 42.384 702.375 42.048 700.863 42.048C699.351 42.048 698.007 42.384 696.831 43.056C695.679 43.728 694.779 44.7 694.131 45.972C693.483 47.22 693.159 48.684 693.159 50.364C693.159 52.044 693.483 53.52 694.131 54.792C694.779 56.064 695.679 57.048 696.831 57.744C698.007 58.416 699.351 58.752 700.863 58.752ZM730.424 63L724.88 53.208H722.504V63H717.464V37.872H726.896C728.84 37.872 730.496 38.22 731.864 38.916C733.232 39.588 734.252 40.512 734.924 41.688C735.62 42.84 735.968 44.136 735.968 45.576C735.968 47.232 735.488 48.732 734.528 50.076C733.568 51.396 732.14 52.308 730.244 52.812L736.256 63H730.424ZM722.504 49.428H726.716C728.084 49.428 729.104 49.104 729.776 48.456C730.448 47.784 730.784 46.86 730.784 45.684C730.784 44.532 730.448 43.644 729.776 43.02C729.104 42.372 728.084 42.048 726.716 42.048H722.504V49.428ZM754.711 63L745.567 51.804V63H740.527V37.872H745.567V49.14L754.711 37.872H760.795L750.427 50.328L761.083 63H754.711Z" fill="black"/>
<path d="M1042.31 52.38H1035.51V59.364H1030.76V52.38H1023.95V47.988H1030.76V41.004H1035.51V47.988H1042.31V52.38Z" fill="#63AEE2"/>
<path d="M1089.91 37.872L1082.89 63H1076.95L1072.23 45.108L1067.3 63L1061.4 63.036L1054.63 37.872H1060.03L1064.46 57.384L1069.57 37.872H1075.18L1080.01 57.276L1084.47 37.872H1089.91ZM1104.86 63.252C1102.51 63.252 1100.35 62.7 1098.38 61.596C1096.41 60.492 1094.85 58.968 1093.7 57.024C1092.55 55.056 1091.97 52.836 1091.97 50.364C1091.97 47.916 1092.55 45.72 1093.7 43.776C1094.85 41.808 1096.41 40.272 1098.38 39.168C1100.35 38.064 1102.51 37.512 1104.86 37.512C1107.24 37.512 1109.4 38.064 1111.34 39.168C1113.31 40.272 1114.86 41.808 1115.99 43.776C1117.14 45.72 1117.71 47.916 1117.71 50.364C1117.71 52.836 1117.14 55.056 1115.99 57.024C1114.86 58.968 1113.31 60.492 1111.34 61.596C1109.37 62.7 1107.21 63.252 1104.86 63.252ZM1104.86 58.752C1106.37 58.752 1107.71 58.416 1108.86 57.744C1110.01 57.048 1110.91 56.064 1111.56 54.792C1112.21 53.52 1112.53 52.044 1112.53 50.364C1112.53 48.684 1112.21 47.22 1111.56 45.972C1110.91 44.7 1110.01 43.728 1108.86 43.056C1107.71 42.384 1106.37 42.048 1104.86 42.048C1103.35 42.048 1102.01 42.384 1100.83 43.056C1099.68 43.728 1098.78 44.7 1098.13 45.972C1097.48 47.22 1097.16 48.684 1097.16 50.364C1097.16 52.044 1097.48 53.52 1098.13 54.792C1098.78 56.064 1099.68 57.048 1100.83 57.744C1102.01 58.416 1103.35 58.752 1104.86 58.752ZM1134.42 63L1128.88 53.208H1126.5V63H1121.46V37.872H1130.9C1132.84 37.872 1134.5 38.22 1135.86 38.916C1137.23 39.588 1138.25 40.512 1138.92 41.688C1139.62 42.84 1139.97 44.136 1139.97 45.576C1139.97 47.232 1139.49 48.732 1138.53 50.076C1137.57 51.396 1136.14 52.308 1134.24 52.812L1140.26 63H1134.42ZM1126.5 49.428H1130.72C1132.08 49.428 1133.1 49.104 1133.78 48.456C1134.45 47.784 1134.78 46.86 1134.78 45.684C1134.78 44.532 1134.45 43.644 1133.78 43.02C1133.1 42.372 1132.08 42.048 1130.72 42.048H1126.5V49.428ZM1158.71 63L1149.57 51.804V63H1144.53V37.872H1149.57V49.14L1158.71 37.872H1164.79L1154.43 50.328L1165.08 63H1158.71Z" fill="black"/>
<path d="M1244.31 52.38H1237.51V59.364H1232.76V52.38H1225.95V47.988H1232.76V41.004H1237.51V47.988H1244.31V52.38Z" fill="#63AEE2"/>
<path d="M1291.91 37.872L1284.89 63H1278.95L1274.23 45.108L1269.3 63L1263.4 63.036L1256.63 37.872H1262.03L1266.46 57.384L1271.57 37.872H1277.18L1282.01 57.276L1286.47 37.872H1291.91ZM1306.86 63.252C1304.51 63.252 1302.35 62.7 1300.38 61.596C1298.41 60.492 1296.85 58.968 1295.7 57.024C1294.55 55.056 1293.97 52.836 1293.97 50.364C1293.97 47.916 1294.55 45.72 1295.7 43.776C1296.85 41.808 1298.41 40.272 1300.38 39.168C1302.35 38.064 1304.51 37.512 1306.86 37.512C1309.24 37.512 1311.4 38.064 1313.34 39.168C1315.31 40.272 1316.86 41.808 1317.99 43.776C1319.14 45.72 1319.71 47.916 1319.71 50.364C1319.71 52.836 1319.14 55.056 1317.99 57.024C1316.86 58.968 1315.31 60.492 1313.34 61.596C1311.37 62.7 1309.21 63.252 1306.86 63.252ZM1306.86 58.752C1308.37 58.752 1309.71 58.416 1310.86 57.744C1312.01 57.048 1312.91 56.064 1313.56 54.792C1314.21 53.52 1314.53 52.044 1314.53 50.364C1314.53 48.684 1314.21 47.22 1313.56 45.972C1312.91 44.7 1312.01 43.728 1310.86 43.056C1309.71 42.384 1308.37 42.048 1306.86 42.048C1305.35 42.048 1304.01 42.384 1302.83 43.056C1301.68 43.728 1300.78 44.7 1300.13 45.972C1299.48 47.22 1299.16 48.684 1299.16 50.364C1299.16 52.044 1299.48 53.52 1300.13 54.792C1300.78 56.064 1301.68 57.048 1302.83 57.744C1304.01 58.416 1305.35 58.752 1306.86 58.752ZM1336.42 63L1330.88 53.208H1328.5V63H1323.46V37.872H1332.9C1334.84 37.872 1336.5 38.22 1337.86 38.916C1339.23 39.588 1340.25 40.512 1340.92 41.688C1341.62 42.84 1341.97 44.136 1341.97 45.576C1341.97 47.232 1341.49 48.732 1340.53 50.076C1339.57 51.396 1338.14 52.308 1336.24 52.812L1342.26 63H1336.42ZM1328.5 49.428H1332.72C1334.08 49.428 1335.1 49.104 1335.78 48.456C1336.45 47.784 1336.78 46.86 1336.78 45.684C1336.78 44.532 1336.45 43.644 1335.78 43.02C1335.1 42.372 1334.08 42.048 1332.72 42.048H1328.5V49.428ZM1360.71 63L1351.57 51.804V63H1346.53V37.872H1351.57V49.14L1360.71 37.872H1366.79L1356.43 50.328L1367.08 63H1360.71Z" fill="black"/>
<path d="M840.312 52.38H833.508V59.364H828.756V52.38H821.952V47.988H828.756V41.004H833.508V47.988H840.312V52.38Z" fill="#63AEE2"/>
<path d="M887.908 37.872L880.888 63H874.948L870.232 45.108L865.3 63L859.396 63.036L852.628 37.872H858.028L862.456 57.384L867.568 37.872H873.184L878.008 57.276L882.472 37.872H887.908ZM902.863 63.252C900.511 63.252 898.351 62.7 896.383 61.596C894.415 60.492 892.855 58.968 891.703 57.024C890.551 55.056 889.975 52.836 889.975 50.364C889.975 47.916 890.551 45.72 891.703 43.776C892.855 41.808 894.415 40.272 896.383 39.168C898.351 38.064 900.511 37.512 902.863 37.512C905.239 37.512 907.399 38.064 909.343 39.168C911.311 40.272 912.859 41.808 913.987 43.776C915.139 45.72 915.715 47.916 915.715 50.364C915.715 52.836 915.139 55.056 913.987 57.024C912.859 58.968 911.311 60.492 909.343 61.596C907.375 62.7 905.215 63.252 902.863 63.252ZM902.863 58.752C904.375 58.752 905.707 58.416 906.859 57.744C908.011 57.048 908.911 56.064 909.559 54.792C910.207 53.52 910.531 52.044 910.531 50.364C910.531 48.684 910.207 47.22 909.559 45.972C908.911 44.7 908.011 43.728 906.859 43.056C905.707 42.384 904.375 42.048 902.863 42.048C901.351 42.048 900.007 42.384 898.831 43.056C897.679 43.728 896.779 44.7 896.131 45.972C895.483 47.22 895.159 48.684 895.159 50.364C895.159 52.044 895.483 53.52 896.131 54.792C896.779 56.064 897.679 57.048 898.831 57.744C900.007 58.416 901.351 58.752 902.863 58.752ZM932.424 63L926.88 53.208H924.504V63H919.464V37.872H928.896C930.84 37.872 932.496 38.22 933.864 38.916C935.232 39.588 936.252 40.512 936.924 41.688C937.62 42.84 937.968 44.136 937.968 45.576C937.968 47.232 937.488 48.732 936.528 50.076C935.568 51.396 934.14 52.308 932.244 52.812L938.256 63H932.424ZM924.504 49.428H928.716C930.084 49.428 931.104 49.104 931.776 48.456C932.448 47.784 932.784 46.86 932.784 45.684C932.784 44.532 932.448 43.644 931.776 43.02C931.104 42.372 930.084 42.048 928.716 42.048H924.504V49.428ZM956.711 63L947.567 51.804V63H942.527V37.872H947.567V49.14L956.711 37.872H962.795L952.427 50.328L963.083 63H956.711Z" fill="black"/>
<path d="M32.312 232.38H25.508V239.364H20.756V232.38H13.952V227.988H20.756V221.004H25.508V227.988H32.312V232.38Z" fill="#63AEE2"/>
<path d="M79.9079 217.872L72.8879 243H66.9479L62.2319 225.108L57.2999 243L51.3959 243.036L44.6279 217.872H50.0279L54.4559 237.384L59.5679 217.872H65.1839L70.0079 237.276L74.4719 217.872H79.9079ZM94.8628 243.252C92.5108 243.252 90.3508 242.7 88.3828 241.596C86.4148 240.492 84.8548 238.968 83.7028 237.024C82.5508 235.056 81.9748 232.836 81.9748 230.364C81.9748 227.916 82.5508 225.72 83.7028 223.776C84.8548 221.808 86.4148 220.272 88.3828 219.168C90.3508 218.064 92.5108 217.512 94.8628 217.512C97.2388 217.512 99.3988 218.064 101.343 219.168C103.311 220.272 104.859 221.808 105.987 223.776C107.139 225.72 107.715 227.916 107.715 230.364C107.715 232.836 107.139 235.056 105.987 237.024C104.859 238.968 103.311 240.492 101.343 241.596C99.3748 242.7 97.2148 243.252 94.8628 243.252ZM94.8628 238.752C96.3748 238.752 97.7068 238.416 98.8588 237.744C100.011 237.048 100.911 236.064 101.559 234.792C102.207 233.52 102.531 232.044 102.531 230.364C102.531 228.684 102.207 227.22 101.559 225.972C100.911 224.7 100.011 223.728 98.8588 223.056C97.7068 222.384 96.3748 222.048 94.8628 222.048C93.3508 222.048 92.0068 222.384 90.8308 223.056C89.6788 223.728 88.7788 224.7 88.1308 225.972C87.4828 227.22 87.1588 228.684 87.1588 230.364C87.1588 232.044 87.4828 233.52 88.1308 234.792C88.7788 236.064 89.6788 237.048 90.8308 237.744C92.0068 238.416 93.3508 238.752 94.8628 238.752ZM124.424 243L118.88 233.208H116.504V243H111.464V217.872H120.896C122.84 217.872 124.496 218.22 125.864 218.916C127.232 219.588 128.252 220.512 128.924 221.688C129.62 222.84 129.968 224.136 129.968 225.576C129.968 227.232 129.488 228.732 128.528 230.076C127.568 231.396 126.14 232.308 124.244 232.812L130.256 243H124.424ZM116.504 229.428H120.716C122.084 229.428 123.104 229.104 123.776 228.456C124.448 227.784 124.784 226.86 124.784 225.684C124.784 224.532 124.448 223.644 123.776 223.02C123.104 222.372 122.084 222.048 120.716 222.048H116.504V229.428ZM148.711 243L139.567 231.804V243H134.527V217.872H139.567V229.14L148.711 217.872H154.795L144.427 230.328L155.083 243H148.711Z" fill="black"/>
<path d="M234.312 232.38H227.508V239.364H222.756V232.38H215.952V227.988H222.756V221.004H227.508V227.988H234.312V232.38Z" fill="#63AEE2"/>
<path d="M281.908 217.872L274.888 243H268.948L264.232 225.108L259.3 243L253.396 243.036L246.628 217.872H252.028L256.456 237.384L261.568 217.872H267.184L272.008 237.276L276.472 217.872H281.908ZM296.863 243.252C294.511 243.252 292.351 242.7 290.383 241.596C288.415 240.492 286.855 238.968 285.703 237.024C284.551 235.056 283.975 232.836 283.975 230.364C283.975 227.916 284.551 225.72 285.703 223.776C286.855 221.808 288.415 220.272 290.383 219.168C292.351 218.064 294.511 217.512 296.863 217.512C299.239 217.512 301.399 218.064 303.343 219.168C305.311 220.272 306.859 221.808 307.987 223.776C309.139 225.72 309.715 227.916 309.715 230.364C309.715 232.836 309.139 235.056 307.987 237.024C306.859 238.968 305.311 240.492 303.343 241.596C301.375 242.7 299.215 243.252 296.863 243.252ZM296.863 238.752C298.375 238.752 299.707 238.416 300.859 237.744C302.011 237.048 302.911 236.064 303.559 234.792C304.207 233.52 304.531 232.044 304.531 230.364C304.531 228.684 304.207 227.22 303.559 225.972C302.911 224.7 302.011 223.728 300.859 223.056C299.707 222.384 298.375 222.048 296.863 222.048C295.351 222.048 294.007 222.384 292.831 223.056C291.679 223.728 290.779 224.7 290.131 225.972C289.483 227.22 289.159 228.684 289.159 230.364C289.159 232.044 289.483 233.52 290.131 234.792C290.779 236.064 291.679 237.048 292.831 237.744C294.007 238.416 295.351 238.752 296.863 238.752ZM326.424 243L320.88 233.208H318.504V243H313.464V217.872H322.896C324.84 217.872 326.496 218.22 327.864 218.916C329.232 219.588 330.252 220.512 330.924 221.688C331.62 222.84 331.968 224.136 331.968 225.576C331.968 227.232 331.488 228.732 330.528 230.076C329.568 231.396 328.14 232.308 326.244 232.812L332.256 243H326.424ZM318.504 229.428H322.716C324.084 229.428 325.104 229.104 325.776 228.456C326.448 227.784 326.784 226.86 326.784 225.684C326.784 224.532 326.448 223.644 325.776 223.02C325.104 222.372 324.084 222.048 322.716 222.048H318.504V229.428ZM350.711 243L341.567 231.804V243H336.527V217.872H341.567V229.14L350.711 217.872H356.795L346.427 230.328L357.083 243H350.711Z" fill="black"/>
<path d="M436.312 232.38H429.508V239.364H424.756V232.38H417.952V227.988H424.756V221.004H429.508V227.988H436.312V232.38Z" fill="#63AEE2"/>
<path d="M483.908 217.872L476.888 243H470.948L466.232 225.108L461.3 243L455.396 243.036L448.628 217.872H454.028L458.456 237.384L463.568 217.872H469.184L474.008 237.276L478.472 217.872H483.908ZM498.863 243.252C496.511 243.252 494.351 242.7 492.383 241.596C490.415 240.492 488.855 238.968 487.703 237.024C486.551 235.056 485.975 232.836 485.975 230.364C485.975 227.916 486.551 225.72 487.703 223.776C488.855 221.808 490.415 220.272 492.383 219.168C494.351 218.064 496.511 217.512 498.863 217.512C501.239 217.512 503.399 218.064 505.343 219.168C507.311 220.272 508.859 221.808 509.987 223.776C511.139 225.72 511.715 227.916 511.715 230.364C511.715 232.836 511.139 235.056 509.987 237.024C508.859 238.968 507.311 240.492 505.343 241.596C503.375 242.7 501.215 243.252 498.863 243.252ZM498.863 238.752C500.375 238.752 501.707 238.416 502.859 237.744C504.011 237.048 504.911 236.064 505.559 234.792C506.207 233.52 506.531 232.044 506.531 230.364C506.531 228.684 506.207 227.22 505.559 225.972C504.911 224.7 504.011 223.728 502.859 223.056C501.707 222.384 500.375 222.048 498.863 222.048C497.351 222.048 496.007 222.384 494.831 223.056C493.679 223.728 492.779 224.7 492.131 225.972C491.483 227.22 491.159 228.684 491.159 230.364C491.159 232.044 491.483 233.52 492.131 234.792C492.779 236.064 493.679 237.048 494.831 237.744C496.007 238.416 497.351 238.752 498.863 238.752ZM528.424 243L522.88 233.208H520.504V243H515.464V217.872H524.896C526.84 217.872 528.496 218.22 529.864 218.916C531.232 219.588 532.252 220.512 532.924 221.688C533.62 222.84 533.968 224.136 533.968 225.576C533.968 227.232 533.488 228.732 532.528 230.076C531.568 231.396 530.14 232.308 528.244 232.812L534.256 243H528.424ZM520.504 229.428H524.716C526.084 229.428 527.104 229.104 527.776 228.456C528.448 227.784 528.784 226.86 528.784 225.684C528.784 224.532 528.448 223.644 527.776 223.02C527.104 222.372 526.084 222.048 524.716 222.048H520.504V229.428ZM552.711 243L543.567 231.804V243H538.527V217.872H543.567V229.14L552.711 217.872H558.795L548.427 230.328L559.083 243H552.711Z" fill="black"/>
<path d="M638.312 232.38H631.508V239.364H626.756V232.38H619.952V227.988H626.756V221.004H631.508V227.988H638.312V232.38Z" fill="#63AEE2"/>
<path d="M685.908 217.872L678.888 243H672.948L668.232 225.108L663.3 243L657.396 243.036L650.628 217.872H656.028L660.456 237.384L665.568 217.872H671.184L676.008 237.276L680.472 217.872H685.908ZM700.863 243.252C698.511 243.252 696.351 242.7 694.383 241.596C692.415 240.492 690.855 238.968 689.703 237.024C688.551 235.056 687.975 232.836 687.975 230.364C687.975 227.916 688.551 225.72 689.703 223.776C690.855 221.808 692.415 220.272 694.383 219.168C696.351 218.064 698.511 217.512 700.863 217.512C703.239 217.512 705.399 218.064 707.343 219.168C709.311 220.272 710.859 221.808 711.987 223.776C713.139 225.72 713.715 227.916 713.715 230.364C713.715 232.836 713.139 235.056 711.987 237.024C710.859 238.968 709.311 240.492 707.343 241.596C705.375 242.7 703.215 243.252 700.863 243.252ZM700.863 238.752C702.375 238.752 703.707 238.416 704.859 237.744C706.011 237.048 706.911 236.064 707.559 234.792C708.207 233.52 708.531 232.044 708.531 230.364C708.531 228.684 708.207 227.22 707.559 225.972C706.911 224.7 706.011 223.728 704.859 223.056C703.707 222.384 702.375 222.048 700.863 222.048C699.351 222.048 698.007 222.384 696.831 223.056C695.679 223.728 694.779 224.7 694.131 225.972C693.483 227.22 693.159 228.684 693.159 230.364C693.159 232.044 693.483 233.52 694.131 234.792C694.779 236.064 695.679 237.048 696.831 237.744C698.007 238.416 699.351 238.752 700.863 238.752ZM730.424 243L724.88 233.208H722.504V243H717.464V217.872H726.896C728.84 217.872 730.496 218.22 731.864 218.916C733.232 219.588 734.252 220.512 734.924 221.688C735.62 222.84 735.968 224.136 735.968 225.576C735.968 227.232 735.488 228.732 734.528 230.076C733.568 231.396 732.14 232.308 730.244 232.812L736.256 243H730.424ZM722.504 229.428H726.716C728.084 229.428 729.104 229.104 729.776 228.456C730.448 227.784 730.784 226.86 730.784 225.684C730.784 224.532 730.448 223.644 729.776 223.02C729.104 222.372 728.084 222.048 726.716 222.048H722.504V229.428ZM754.711 243L745.567 231.804V243H740.527V217.872H745.567V229.14L754.711 217.872H760.795L750.427 230.328L761.083 243H754.711Z" fill="black"/>
<path d="M1042.31 232.38H1035.51V239.364H1030.76V232.38H1023.95V227.988H1030.76V221.004H1035.51V227.988H1042.31V232.38Z" fill="#63AEE2"/>
<path d="M1089.91 217.872L1082.89 243H1076.95L1072.23 225.108L1067.3 243L1061.4 243.036L1054.63 217.872H1060.03L1064.46 237.384L1069.57 217.872H1075.18L1080.01 237.276L1084.47 217.872H1089.91ZM1104.86 243.252C1102.51 243.252 1100.35 242.7 1098.38 241.596C1096.41 240.492 1094.85 238.968 1093.7 237.024C1092.55 235.056 1091.97 232.836 1091.97 230.364C1091.97 227.916 1092.55 225.72 1093.7 223.776C1094.85 221.808 1096.41 220.272 1098.38 219.168C1100.35 218.064 1102.51 217.512 1104.86 217.512C1107.24 217.512 1109.4 218.064 1111.34 219.168C1113.31 220.272 1114.86 221.808 1115.99 223.776C1117.14 225.72 1117.71 227.916 1117.71 230.364C1117.71 232.836 1117.14 235.056 1115.99 237.024C1114.86 238.968 1113.31 240.492 1111.34 241.596C1109.37 242.7 1107.21 243.252 1104.86 243.252ZM1104.86 238.752C1106.37 238.752 1107.71 238.416 1108.86 237.744C1110.01 237.048 1110.91 236.064 1111.56 234.792C1112.21 233.52 1112.53 232.044 1112.53 230.364C1112.53 228.684 1112.21 227.22 1111.56 225.972C1110.91 224.7 1110.01 223.728 1108.86 223.056C1107.71 222.384 1106.37 222.048 1104.86 222.048C1103.35 222.048 1102.01 222.384 1100.83 223.056C1099.68 223.728 1098.78 224.7 1098.13 225.972C1097.48 227.22 1097.16 228.684 1097.16 230.364C1097.16 232.044 1097.48 233.52 1098.13 234.792C1098.78 236.064 1099.68 237.048 1100.83 237.744C1102.01 238.416 1103.35 238.752 1104.86 238.752ZM1134.42 243L1128.88 233.208H1126.5V243H1121.46V217.872H1130.9C1132.84 217.872 1134.5 218.22 1135.86 218.916C1137.23 219.588 1138.25 220.512 1138.92 221.688C1139.62 222.84 1139.97 224.136 1139.97 225.576C1139.97 227.232 1139.49 228.732 1138.53 230.076C1137.57 231.396 1136.14 232.308 1134.24 232.812L1140.26 243H1134.42ZM1126.5 229.428H1130.72C1132.08 229.428 1133.1 229.104 1133.78 228.456C1134.45 227.784 1134.78 226.86 1134.78 225.684C1134.78 224.532 1134.45 223.644 1133.78 223.02C1133.1 222.372 1132.08 222.048 1130.72 222.048H1126.5V229.428ZM1158.71 243L1149.57 231.804V243H1144.53V217.872H1149.57V229.14L1158.71 217.872H1164.79L1154.43 230.328L1165.08 243H1158.71Z" fill="black"/>
<path d="M1244.31 232.38H1237.51V239.364H1232.76V232.38H1225.95V227.988H1232.76V221.004H1237.51V227.988H1244.31V232.38Z" fill="#63AEE2"/>
<path d="M1291.91 217.872L1284.89 243H1278.95L1274.23 225.108L1269.3 243L1263.4 243.036L1256.63 217.872H1262.03L1266.46 237.384L1271.57 217.872H1277.18L1282.01 237.276L1286.47 217.872H1291.91ZM1306.86 243.252C1304.51 243.252 1302.35 242.7 1300.38 241.596C1298.41 240.492 1296.85 238.968 1295.7 237.024C1294.55 235.056 1293.97 232.836 1293.97 230.364C1293.97 227.916 1294.55 225.72 1295.7 223.776C1296.85 221.808 1298.41 220.272 1300.38 219.168C1302.35 218.064 1304.51 217.512 1306.86 217.512C1309.24 217.512 1311.4 218.064 1313.34 219.168C1315.31 220.272 1316.86 221.808 1317.99 223.776C1319.14 225.72 1319.71 227.916 1319.71 230.364C1319.71 232.836 1319.14 235.056 1317.99 237.024C1316.86 238.968 1315.31 240.492 1313.34 241.596C1311.37 242.7 1309.21 243.252 1306.86 243.252ZM1306.86 238.752C1308.37 238.752 1309.71 238.416 1310.86 237.744C1312.01 237.048 1312.91 236.064 1313.56 234.792C1314.21 233.52 1314.53 232.044 1314.53 230.364C1314.53 228.684 1314.21 227.22 1313.56 225.972C1312.91 224.7 1312.01 223.728 1310.86 223.056C1309.71 222.384 1308.37 222.048 1306.86 222.048C1305.35 222.048 1304.01 222.384 1302.83 223.056C1301.68 223.728 1300.78 224.7 1300.13 225.972C1299.48 227.22 1299.16 228.684 1299.16 230.364C1299.16 232.044 1299.48 233.52 1300.13 234.792C1300.78 236.064 1301.68 237.048 1302.83 237.744C1304.01 238.416 1305.35 238.752 1306.86 238.752ZM1336.42 243L1330.88 233.208H1328.5V243H1323.46V217.872H1332.9C1334.84 217.872 1336.5 218.22 1337.86 218.916C1339.23 219.588 1340.25 220.512 1340.92 221.688C1341.62 222.84 1341.97 224.136 1341.97 225.576C1341.97 227.232 1341.49 228.732 1340.53 230.076C1339.57 231.396 1338.14 232.308 1336.24 232.812L1342.26 243H1336.42ZM1328.5 229.428H1332.72C1334.08 229.428 1335.1 229.104 1335.78 228.456C1336.45 227.784 1336.78 226.86 1336.78 225.684C1336.78 224.532 1336.45 223.644 1335.78 223.02C1335.1 222.372 1334.08 222.048 1332.72 222.048H1328.5V229.428ZM1360.71 243L1351.57 231.804V243H1346.53V217.872H1351.57V229.14L1360.71 217.872H1366.79L1356.43 230.328L1367.08 243H1360.71Z" fill="black"/>
<path d="M840.312 232.38H833.508V239.364H828.756V232.38H821.952V227.988H828.756V221.004H833.508V227.988H840.312V232.38Z" fill="#63AEE2"/>
<path d="M887.908 217.872L880.888 243H874.948L870.232 225.108L865.3 243L859.396 243.036L852.628 217.872H858.028L862.456 237.384L867.568 217.872H873.184L878.008 237.276L882.472 217.872H887.908ZM902.863 243.252C900.511 243.252 898.351 242.7 896.383 241.596C894.415 240.492 892.855 238.968 891.703 237.024C890.551 235.056 889.975 232.836 889.975 230.364C889.975 227.916 890.551 225.72 891.703 223.776C892.855 221.808 894.415 220.272 896.383 219.168C898.351 218.064 900.511 217.512 902.863 217.512C905.239 217.512 907.399 218.064 909.343 219.168C911.311 220.272 912.859 221.808 913.987 223.776C915.139 225.72 915.715 227.916 915.715 230.364C915.715 232.836 915.139 235.056 913.987 237.024C912.859 238.968 911.311 240.492 909.343 241.596C907.375 242.7 905.215 243.252 902.863 243.252ZM902.863 238.752C904.375 238.752 905.707 238.416 906.859 237.744C908.011 237.048 908.911 236.064 909.559 234.792C910.207 233.52 910.531 232.044 910.531 230.364C910.531 228.684 910.207 227.22 909.559 225.972C908.911 224.7 908.011 223.728 906.859 223.056C905.707 222.384 904.375 222.048 902.863 222.048C901.351 222.048 900.007 222.384 898.831 223.056C897.679 223.728 896.779 224.7 896.131 225.972C895.483 227.22 895.159 228.684 895.159 230.364C895.159 232.044 895.483 233.52 896.131 234.792C896.779 236.064 897.679 237.048 898.831 237.744C900.007 238.416 901.351 238.752 902.863 238.752ZM932.424 243L926.88 233.208H924.504V243H919.464V217.872H928.896C930.84 217.872 932.496 218.22 933.864 218.916C935.232 219.588 936.252 220.512 936.924 221.688C937.62 222.84 937.968 224.136 937.968 225.576C937.968 227.232 937.488 228.732 936.528 230.076C935.568 231.396 934.14 232.308 932.244 232.812L938.256 243H932.424ZM924.504 229.428H928.716C930.084 229.428 931.104 229.104 931.776 228.456C932.448 227.784 932.784 226.86 932.784 225.684C932.784 224.532 932.448 223.644 931.776 223.02C931.104 222.372 930.084 222.048 928.716 222.048H924.504V229.428ZM956.711 243L947.567 231.804V243H942.527V217.872H947.567V229.14L956.711 217.872H962.795L952.427 230.328L963.083 243H956.711Z" fill="black"/>
<path d="M32.312 142.38H25.508V149.364H20.756V142.38H13.952V137.988H20.756V131.004H25.508V137.988H32.312V142.38Z" fill="#63AEE2"/>
<path d="M79.9079 127.872L72.8879 153H66.9479L62.2319 135.108L57.2999 153L51.3959 153.036L44.6279 127.872H50.0279L54.4559 147.384L59.5679 127.872H65.1839L70.0079 147.276L74.4719 127.872H79.9079ZM94.8628 153.252C92.5108 153.252 90.3508 152.7 88.3828 151.596C86.4148 150.492 84.8548 148.968 83.7028 147.024C82.5508 145.056 81.9748 142.836 81.9748 140.364C81.9748 137.916 82.5508 135.72 83.7028 133.776C84.8548 131.808 86.4148 130.272 88.3828 129.168C90.3508 128.064 92.5108 127.512 94.8628 127.512C97.2388 127.512 99.3988 128.064 101.343 129.168C103.311 130.272 104.859 131.808 105.987 133.776C107.139 135.72 107.715 137.916 107.715 140.364C107.715 142.836 107.139 145.056 105.987 147.024C104.859 148.968 103.311 150.492 101.343 151.596C99.3748 152.7 97.2148 153.252 94.8628 153.252ZM94.8628 148.752C96.3748 148.752 97.7068 148.416 98.8588 147.744C100.011 147.048 100.911 146.064 101.559 144.792C102.207 143.52 102.531 142.044 102.531 140.364C102.531 138.684 102.207 137.22 101.559 135.972C100.911 134.7 100.011 133.728 98.8588 133.056C97.7068 132.384 96.3748 132.048 94.8628 132.048C93.3508 132.048 92.0068 132.384 90.8308 133.056C89.6788 133.728 88.7788 134.7 88.1308 135.972C87.4828 137.22 87.1588 138.684 87.1588 140.364C87.1588 142.044 87.4828 143.52 88.1308 144.792C88.7788 146.064 89.6788 147.048 90.8308 147.744C92.0068 148.416 93.3508 148.752 94.8628 148.752ZM124.424 153L118.88 143.208H116.504V153H111.464V127.872H120.896C122.84 127.872 124.496 128.22 125.864 128.916C127.232 129.588 128.252 130.512 128.924 131.688C129.62 132.84 129.968 134.136 129.968 135.576C129.968 137.232 129.488 138.732 128.528 140.076C127.568 141.396 126.14 142.308 124.244 142.812L130.256 153H124.424ZM116.504 139.428H120.716C122.084 139.428 123.104 139.104 123.776 138.456C124.448 137.784 124.784 136.86 124.784 135.684C124.784 134.532 124.448 133.644 123.776 133.02C123.104 132.372 122.084 132.048 120.716 132.048H116.504V139.428ZM148.711 153L139.567 141.804V153H134.527V127.872H139.567V139.14L148.711 127.872H154.795L144.427 140.328L155.083 153H148.711Z" fill="black"/>
<path d="M234.312 142.38H227.508V149.364H222.756V142.38H215.952V137.988H222.756V131.004H227.508V137.988H234.312V142.38Z" fill="#63AEE2"/>
<path d="M281.908 127.872L274.888 153H268.948L264.232 135.108L259.3 153L253.396 153.036L246.628 127.872H252.028L256.456 147.384L261.568 127.872H267.184L272.008 147.276L276.472 127.872H281.908ZM296.863 153.252C294.511 153.252 292.351 152.7 290.383 151.596C288.415 150.492 286.855 148.968 285.703 147.024C284.551 145.056 283.975 142.836 283.975 140.364C283.975 137.916 284.551 135.72 285.703 133.776C286.855 131.808 288.415 130.272 290.383 129.168C292.351 128.064 294.511 127.512 296.863 127.512C299.239 127.512 301.399 128.064 303.343 129.168C305.311 130.272 306.859 131.808 307.987 133.776C309.139 135.72 309.715 137.916 309.715 140.364C309.715 142.836 309.139 145.056 307.987 147.024C306.859 148.968 305.311 150.492 303.343 151.596C301.375 152.7 299.215 153.252 296.863 153.252ZM296.863 148.752C298.375 148.752 299.707 148.416 300.859 147.744C302.011 147.048 302.911 146.064 303.559 144.792C304.207 143.52 304.531 142.044 304.531 140.364C304.531 138.684 304.207 137.22 303.559 135.972C302.911 134.7 302.011 133.728 300.859 133.056C299.707 132.384 298.375 132.048 296.863 132.048C295.351 132.048 294.007 132.384 292.831 133.056C291.679 133.728 290.779 134.7 290.131 135.972C289.483 137.22 289.159 138.684 289.159 140.364C289.159 142.044 289.483 143.52 290.131 144.792C290.779 146.064 291.679 147.048 292.831 147.744C294.007 148.416 295.351 148.752 296.863 148.752ZM326.424 153L320.88 143.208H318.504V153H313.464V127.872H322.896C324.84 127.872 326.496 128.22 327.864 128.916C329.232 129.588 330.252 130.512 330.924 131.688C331.62 132.84 331.968 134.136 331.968 135.576C331.968 137.232 331.488 138.732 330.528 140.076C329.568 141.396 328.14 142.308 326.244 142.812L332.256 153H326.424ZM318.504 139.428H322.716C324.084 139.428 325.104 139.104 325.776 138.456C326.448 137.784 326.784 136.86 326.784 135.684C326.784 134.532 326.448 133.644 325.776 133.02C325.104 132.372 324.084 132.048 322.716 132.048H318.504V139.428ZM350.711 153L341.567 141.804V153H336.527V127.872H341.567V139.14L350.711 127.872H356.795L346.427 140.328L357.083 153H350.711Z" fill="black"/>
<path d="M436.312 142.38H429.508V149.364H424.756V142.38H417.952V137.988H424.756V131.004H429.508V137.988H436.312V142.38Z" fill="#63AEE2"/>
<path d="M483.908 127.872L476.888 153H470.948L466.232 135.108L461.3 153L455.396 153.036L448.628 127.872H454.028L458.456 147.384L463.568 127.872H469.184L474.008 147.276L478.472 127.872H483.908ZM498.863 153.252C496.511 153.252 494.351 152.7 492.383 151.596C490.415 150.492 488.855 148.968 487.703 147.024C486.551 145.056 485.975 142.836 485.975 140.364C485.975 137.916 486.551 135.72 487.703 133.776C488.855 131.808 490.415 130.272 492.383 129.168C494.351 128.064 496.511 127.512 498.863 127.512C501.239 127.512 503.399 128.064 505.343 129.168C507.311 130.272 508.859 131.808 509.987 133.776C511.139 135.72 511.715 137.916 511.715 140.364C511.715 142.836 511.139 145.056 509.987 147.024C508.859 148.968 507.311 150.492 505.343 151.596C503.375 152.7 501.215 153.252 498.863 153.252ZM498.863 148.752C500.375 148.752 501.707 148.416 502.859 147.744C504.011 147.048 504.911 146.064 505.559 144.792C506.207 143.52 506.531 142.044 506.531 140.364C506.531 138.684 506.207 137.22 505.559 135.972C504.911 134.7 504.011 133.728 502.859 133.056C501.707 132.384 500.375 132.048 498.863 132.048C497.351 132.048 496.007 132.384 494.831 133.056C493.679 133.728 492.779 134.7 492.131 135.972C491.483 137.22 491.159 138.684 491.159 140.364C491.159 142.044 491.483 143.52 492.131 144.792C492.779 146.064 493.679 147.048 494.831 147.744C496.007 148.416 497.351 148.752 498.863 148.752ZM528.424 153L522.88 143.208H520.504V153H515.464V127.872H524.896C526.84 127.872 528.496 128.22 529.864 128.916C531.232 129.588 532.252 130.512 532.924 131.688C533.62 132.84 533.968 134.136 533.968 135.576C533.968 137.232 533.488 138.732 532.528 140.076C531.568 141.396 530.14 142.308 528.244 142.812L534.256 153H528.424ZM520.504 139.428H524.716C526.084 139.428 527.104 139.104 527.776 138.456C528.448 137.784 528.784 136.86 528.784 135.684C528.784 134.532 528.448 133.644 527.776 133.02C527.104 132.372 526.084 132.048 524.716 132.048H520.504V139.428ZM552.711 153L543.567 141.804V153H538.527V127.872H543.567V139.14L552.711 127.872H558.795L548.427 140.328L559.083 153H552.711Z" fill="black"/>
<path d="M638.312 142.38H631.508V149.364H626.756V142.38H619.952V137.988H626.756V131.004H631.508V137.988H638.312V142.38Z" fill="#63AEE2"/>
<path d="M685.908 127.872L678.888 153H672.948L668.232 135.108L663.3 153L657.396 153.036L650.628 127.872H656.028L660.456 147.384L665.568 127.872H671.184L676.008 147.276L680.472 127.872H685.908ZM700.863 153.252C698.511 153.252 696.351 152.7 694.383 151.596C692.415 150.492 690.855 148.968 689.703 147.024C688.551 145.056 687.975 142.836 687.975 140.364C687.975 137.916 688.551 135.72 689.703 133.776C690.855 131.808 692.415 130.272 694.383 129.168C696.351 128.064 698.511 127.512 700.863 127.512C703.239 127.512 705.399 128.064 707.343 129.168C709.311 130.272 710.859 131.808 711.987 133.776C713.139 135.72 713.715 137.916 713.715 140.364C713.715 142.836 713.139 145.056 711.987 147.024C710.859 148.968 709.311 150.492 707.343 151.596C705.375 152.7 703.215 153.252 700.863 153.252ZM700.863 148.752C702.375 148.752 703.707 148.416 704.859 147.744C706.011 147.048 706.911 146.064 707.559 144.792C708.207 143.52 708.531 142.044 708.531 140.364C708.531 138.684 708.207 137.22 707.559 135.972C706.911 134.7 706.011 133.728 704.859 133.056C703.707 132.384 702.375 132.048 700.863 132.048C699.351 132.048 698.007 132.384 696.831 133.056C695.679 133.728 694.779 134.7 694.131 135.972C693.483 137.22 693.159 138.684 693.159 140.364C693.159 142.044 693.483 143.52 694.131 144.792C694.779 146.064 695.679 147.048 696.831 147.744C698.007 148.416 699.351 148.752 700.863 148.752ZM730.424 153L724.88 143.208H722.504V153H717.464V127.872H726.896C728.84 127.872 730.496 128.22 731.864 128.916C733.232 129.588 734.252 130.512 734.924 131.688C735.62 132.84 735.968 134.136 735.968 135.576C735.968 137.232 735.488 138.732 734.528 140.076C733.568 141.396 732.14 142.308 730.244 142.812L736.256 153H730.424ZM722.504 139.428H726.716C728.084 139.428 729.104 139.104 729.776 138.456C730.448 137.784 730.784 136.86 730.784 135.684C730.784 134.532 730.448 133.644 729.776 133.02C729.104 132.372 728.084 132.048 726.716 132.048H722.504V139.428ZM754.711 153L745.567 141.804V153H740.527V127.872H745.567V139.14L754.711 127.872H760.795L750.427 140.328L761.083 153H754.711Z" fill="black"/>
<path d="M1042.31 142.38H1035.51V149.364H1030.76V142.38H1023.95V137.988H1030.76V131.004H1035.51V137.988H1042.31V142.38Z" fill="#63AEE2"/>
<path d="M1089.91 127.872L1082.89 153H1076.95L1072.23 135.108L1067.3 153L1061.4 153.036L1054.63 127.872H1060.03L1064.46 147.384L1069.57 127.872H1075.18L1080.01 147.276L1084.47 127.872H1089.91ZM1104.86 153.252C1102.51 153.252 1100.35 152.7 1098.38 151.596C1096.41 150.492 1094.85 148.968 1093.7 147.024C1092.55 145.056 1091.97 142.836 1091.97 140.364C1091.97 137.916 1092.55 135.72 1093.7 133.776C1094.85 131.808 1096.41 130.272 1098.38 129.168C1100.35 128.064 1102.51 127.512 1104.86 127.512C1107.24 127.512 1109.4 128.064 1111.34 129.168C1113.31 130.272 1114.86 131.808 1115.99 133.776C1117.14 135.72 1117.71 137.916 1117.71 140.364C1117.71 142.836 1117.14 145.056 1115.99 147.024C1114.86 148.968 1113.31 150.492 1111.34 151.596C1109.37 152.7 1107.21 153.252 1104.86 153.252ZM1104.86 148.752C1106.37 148.752 1107.71 148.416 1108.86 147.744C1110.01 147.048 1110.91 146.064 1111.56 144.792C1112.21 143.52 1112.53 142.044 1112.53 140.364C1112.53 138.684 1112.21 137.22 1111.56 135.972C1110.91 134.7 1110.01 133.728 1108.86 133.056C1107.71 132.384 1106.37 132.048 1104.86 132.048C1103.35 132.048 1102.01 132.384 1100.83 133.056C1099.68 133.728 1098.78 134.7 1098.13 135.972C1097.48 137.22 1097.16 138.684 1097.16 140.364C1097.16 142.044 1097.48 143.52 1098.13 144.792C1098.78 146.064 1099.68 147.048 1100.83 147.744C1102.01 148.416 1103.35 148.752 1104.86 148.752ZM1134.42 153L1128.88 143.208H1126.5V153H1121.46V127.872H1130.9C1132.84 127.872 1134.5 128.22 1135.86 128.916C1137.23 129.588 1138.25 130.512 1138.92 131.688C1139.62 132.84 1139.97 134.136 1139.97 135.576C1139.97 137.232 1139.49 138.732 1138.53 140.076C1137.57 141.396 1136.14 142.308 1134.24 142.812L1140.26 153H1134.42ZM1126.5 139.428H1130.72C1132.08 139.428 1133.1 139.104 1133.78 138.456C1134.45 137.784 1134.78 136.86 1134.78 135.684C1134.78 134.532 1134.45 133.644 1133.78 133.02C1133.1 132.372 1132.08 132.048 1130.72 132.048H1126.5V139.428ZM1158.71 153L1149.57 141.804V153H1144.53V127.872H1149.57V139.14L1158.71 127.872H1164.79L1154.43 140.328L1165.08 153H1158.71Z" fill="black"/>
<path d="M1244.31 142.38H1237.51V149.364H1232.76V142.38H1225.95V137.988H1232.76V131.004H1237.51V137.988H1244.31V142.38Z" fill="#63AEE2"/>
<path d="M1291.91 127.872L1284.89 153H1278.95L1274.23 135.108L1269.3 153L1263.4 153.036L1256.63 127.872H1262.03L1266.46 147.384L1271.57 127.872H1277.18L1282.01 147.276L1286.47 127.872H1291.91ZM1306.86 153.252C1304.51 153.252 1302.35 152.7 1300.38 151.596C1298.41 150.492 1296.85 148.968 1295.7 147.024C1294.55 145.056 1293.97 142.836 1293.97 140.364C1293.97 137.916 1294.55 135.72 1295.7 133.776C1296.85 131.808 1298.41 130.272 1300.38 129.168C1302.35 128.064 1304.51 127.512 1306.86 127.512C1309.24 127.512 1311.4 128.064 1313.34 129.168C1315.31 130.272 1316.86 131.808 1317.99 133.776C1319.14 135.72 1319.71 137.916 1319.71 140.364C1319.71 142.836 1319.14 145.056 1317.99 147.024C1316.86 148.968 1315.31 150.492 1313.34 151.596C1311.37 152.7 1309.21 153.252 1306.86 153.252ZM1306.86 148.752C1308.37 148.752 1309.71 148.416 1310.86 147.744C1312.01 147.048 1312.91 146.064 1313.56 144.792C1314.21 143.52 1314.53 142.044 1314.53 140.364C1314.53 138.684 1314.21 137.22 1313.56 135.972C1312.91 134.7 1312.01 133.728 1310.86 133.056C1309.71 132.384 1308.37 132.048 1306.86 132.048C1305.35 132.048 1304.01 132.384 1302.83 133.056C1301.68 133.728 1300.78 134.7 1300.13 135.972C1299.48 137.22 1299.16 138.684 1299.16 140.364C1299.16 142.044 1299.48 143.52 1300.13 144.792C1300.78 146.064 1301.68 147.048 1302.83 147.744C1304.01 148.416 1305.35 148.752 1306.86 148.752ZM1336.42 153L1330.88 143.208H1328.5V153H1323.46V127.872H1332.9C1334.84 127.872 1336.5 128.22 1337.86 128.916C1339.23 129.588 1340.25 130.512 1340.92 131.688C1341.62 132.84 1341.97 134.136 1341.97 135.576C1341.97 137.232 1341.49 138.732 1340.53 140.076C1339.57 141.396 1338.14 142.308 1336.24 142.812L1342.26 153H1336.42ZM1328.5 139.428H1332.72C1334.08 139.428 1335.1 139.104 1335.78 138.456C1336.45 137.784 1336.78 136.86 1336.78 135.684C1336.78 134.532 1336.45 133.644 1335.78 133.02C1335.1 132.372 1334.08 132.048 1332.72 132.048H1328.5V139.428ZM1360.71 153L1351.57 141.804V153H1346.53V127.872H1351.57V139.14L1360.71 127.872H1366.79L1356.43 140.328L1367.08 153H1360.71Z" fill="black"/>
<path d="M840.312 142.38H833.508V149.364H828.756V142.38H821.952V137.988H828.756V131.004H833.508V137.988H840.312V142.38Z" fill="#63AEE2"/>
<path d="M887.908 127.872L880.888 153H874.948L870.232 135.108L865.3 153L859.396 153.036L852.628 127.872H858.028L862.456 147.384L867.568 127.872H873.184L878.008 147.276L882.472 127.872H887.908ZM902.863 153.252C900.511 153.252 898.351 152.7 896.383 151.596C894.415 150.492 892.855 148.968 891.703 147.024C890.551 145.056 889.975 142.836 889.975 140.364C889.975 137.916 890.551 135.72 891.703 133.776C892.855 131.808 894.415 130.272 896.383 129.168C898.351 128.064 900.511 127.512 902.863 127.512C905.239 127.512 907.399 128.064 909.343 129.168C911.311 130.272 912.859 131.808 913.987 133.776C915.139 135.72 915.715 137.916 915.715 140.364C915.715 142.836 915.139 145.056 913.987 147.024C912.859 148.968 911.311 150.492 909.343 151.596C907.375 152.7 905.215 153.252 902.863 153.252ZM902.863 148.752C904.375 148.752 905.707 148.416 906.859 147.744C908.011 147.048 908.911 146.064 909.559 144.792C910.207 143.52 910.531 142.044 910.531 140.364C910.531 138.684 910.207 137.22 909.559 135.972C908.911 134.7 908.011 133.728 906.859 133.056C905.707 132.384 904.375 132.048 902.863 132.048C901.351 132.048 900.007 132.384 898.831 133.056C897.679 133.728 896.779 134.7 896.131 135.972C895.483 137.22 895.159 138.684 895.159 140.364C895.159 142.044 895.483 143.52 896.131 144.792C896.779 146.064 897.679 147.048 898.831 147.744C900.007 148.416 901.351 148.752 902.863 148.752ZM932.424 153L926.88 143.208H924.504V153H919.464V127.872H928.896C930.84 127.872 932.496 128.22 933.864 128.916C935.232 129.588 936.252 130.512 936.924 131.688C937.62 132.84 937.968 134.136 937.968 135.576C937.968 137.232 937.488 138.732 936.528 140.076C935.568 141.396 934.14 142.308 932.244 142.812L938.256 153H932.424ZM924.504 139.428H928.716C930.084 139.428 931.104 139.104 931.776 138.456C932.448 137.784 932.784 136.86 932.784 135.684C932.784 134.532 932.448 133.644 931.776 133.02C931.104 132.372 930.084 132.048 928.716 132.048H924.504V139.428ZM956.711 153L947.567 141.804V153H942.527V127.872H947.567V139.14L956.711 127.872H962.795L952.427 140.328L963.083 153H956.711Z" fill="black"/>
</svg>
