<svg width="1404" height="279" viewBox="0 0 1404 279" fill="none" xmlns="http://www.w3.org/2000/svg">
<rect width="1404" height="279" fill="#262626"/>
<path d="M1063.31 153.38H1056.51V160.364H1051.76V153.38H1044.95V148.988H1051.76V142.004H1056.51V148.988H1063.31V153.38Z" fill="#63AEE2"/>
<path d="M1110.91 138.872L1103.89 164H1097.95L1093.23 146.108L1088.3 164L1082.4 164.036L1075.63 138.872H1081.03L1085.46 158.384L1090.57 138.872H1096.18L1101.01 158.276L1105.47 138.872H1110.91ZM1125.86 164.252C1123.51 164.252 1121.35 163.7 1119.38 162.596C1117.41 161.492 1115.85 159.968 1114.7 158.024C1113.55 156.056 1112.97 153.836 1112.97 151.364C1112.97 148.916 1113.55 146.72 1114.7 144.776C1115.85 142.808 1117.41 141.272 1119.38 140.168C1121.35 139.064 1123.51 138.512 1125.86 138.512C1128.24 138.512 1130.4 139.064 1132.34 140.168C1134.31 141.272 1135.86 142.808 1136.99 144.776C1138.14 146.72 1138.71 148.916 1138.71 151.364C1138.71 153.836 1138.14 156.056 1136.99 158.024C1135.86 159.968 1134.31 161.492 1132.34 162.596C1130.37 163.7 1128.21 164.252 1125.86 164.252ZM1125.86 159.752C1127.37 159.752 1128.71 159.416 1129.86 158.744C1131.01 158.048 1131.91 157.064 1132.56 155.792C1133.21 154.52 1133.53 153.044 1133.53 151.364C1133.53 149.684 1133.21 148.22 1132.56 146.972C1131.91 145.7 1131.01 144.728 1129.86 144.056C1128.71 143.384 1127.37 143.048 1125.86 143.048C1124.35 143.048 1123.01 143.384 1121.83 144.056C1120.68 144.728 1119.78 145.7 1119.13 146.972C1118.48 148.22 1118.16 149.684 1118.16 151.364C1118.16 153.044 1118.48 154.52 1119.13 155.792C1119.78 157.064 1120.68 158.048 1121.83 158.744C1123.01 159.416 1124.35 159.752 1125.86 159.752ZM1155.42 164L1149.88 154.208H1147.5V164H1142.46V138.872H1151.9C1153.84 138.872 1155.5 139.22 1156.86 139.916C1158.23 140.588 1159.25 141.512 1159.92 142.688C1160.62 143.84 1160.97 145.136 1160.97 146.576C1160.97 148.232 1160.49 149.732 1159.53 151.076C1158.57 152.396 1157.14 153.308 1155.24 153.812L1161.26 164H1155.42ZM1147.5 150.428H1151.72C1153.08 150.428 1154.1 150.104 1154.78 149.456C1155.45 148.784 1155.78 147.86 1155.78 146.684C1155.78 145.532 1155.45 144.644 1154.78 144.02C1154.1 143.372 1153.08 143.048 1151.72 143.048H1147.5V150.428ZM1179.71 164L1170.57 152.804V164H1165.53V138.872H1170.57V150.14L1179.71 138.872H1185.79L1175.43 151.328L1186.08 164H1179.71Z" fill="white"/>
<path d="M856.312 153.38H849.508V160.364H844.756V153.38H837.952V148.988H844.756V142.004H849.508V148.988H856.312V153.38Z" fill="#63AEE2"/>
<path d="M903.908 138.872L896.888 164H890.948L886.232 146.108L881.3 164L875.396 164.036L868.628 138.872H874.028L878.456 158.384L883.568 138.872H889.184L894.008 158.276L898.472 138.872H903.908ZM918.863 164.252C916.511 164.252 914.351 163.7 912.383 162.596C910.415 161.492 908.855 159.968 907.703 158.024C906.551 156.056 905.975 153.836 905.975 151.364C905.975 148.916 906.551 146.72 907.703 144.776C908.855 142.808 910.415 141.272 912.383 140.168C914.351 139.064 916.511 138.512 918.863 138.512C921.239 138.512 923.399 139.064 925.343 140.168C927.311 141.272 928.859 142.808 929.987 144.776C931.139 146.72 931.715 148.916 931.715 151.364C931.715 153.836 931.139 156.056 929.987 158.024C928.859 159.968 927.311 161.492 925.343 162.596C923.375 163.7 921.215 164.252 918.863 164.252ZM918.863 159.752C920.375 159.752 921.707 159.416 922.859 158.744C924.011 158.048 924.911 157.064 925.559 155.792C926.207 154.52 926.531 153.044 926.531 151.364C926.531 149.684 926.207 148.22 925.559 146.972C924.911 145.7 924.011 144.728 922.859 144.056C921.707 143.384 920.375 143.048 918.863 143.048C917.351 143.048 916.007 143.384 914.831 144.056C913.679 144.728 912.779 145.7 912.131 146.972C911.483 148.22 911.159 149.684 911.159 151.364C911.159 153.044 911.483 154.52 912.131 155.792C912.779 157.064 913.679 158.048 914.831 158.744C916.007 159.416 917.351 159.752 918.863 159.752ZM948.424 164L942.88 154.208H940.504V164H935.464V138.872H944.896C946.84 138.872 948.496 139.22 949.864 139.916C951.232 140.588 952.252 141.512 952.924 142.688C953.62 143.84 953.968 145.136 953.968 146.576C953.968 148.232 953.488 149.732 952.528 151.076C951.568 152.396 950.14 153.308 948.244 153.812L954.256 164H948.424ZM940.504 150.428H944.716C946.084 150.428 947.104 150.104 947.776 149.456C948.448 148.784 948.784 147.86 948.784 146.684C948.784 145.532 948.448 144.644 947.776 144.02C947.104 143.372 946.084 143.048 944.716 143.048H940.504V150.428ZM972.711 164L963.567 152.804V164H958.527V138.872H963.567V150.14L972.711 138.872H978.795L968.427 151.328L979.083 164H972.711Z" fill="white"/>
<path d="M649.312 153.38H642.508V160.364H637.756V153.38H630.952V148.988H637.756V142.004H642.508V148.988H649.312V153.38Z" fill="#63AEE2"/>
<path d="M696.908 138.872L689.888 164H683.948L679.232 146.108L674.3 164L668.396 164.036L661.628 138.872H667.028L671.456 158.384L676.568 138.872H682.184L687.008 158.276L691.472 138.872H696.908ZM711.863 164.252C709.511 164.252 707.351 163.7 705.383 162.596C703.415 161.492 701.855 159.968 700.703 158.024C699.551 156.056 698.975 153.836 698.975 151.364C698.975 148.916 699.551 146.72 700.703 144.776C701.855 142.808 703.415 141.272 705.383 140.168C707.351 139.064 709.511 138.512 711.863 138.512C714.239 138.512 716.399 139.064 718.343 140.168C720.311 141.272 721.859 142.808 722.987 144.776C724.139 146.72 724.715 148.916 724.715 151.364C724.715 153.836 724.139 156.056 722.987 158.024C721.859 159.968 720.311 161.492 718.343 162.596C716.375 163.7 714.215 164.252 711.863 164.252ZM711.863 159.752C713.375 159.752 714.707 159.416 715.859 158.744C717.011 158.048 717.911 157.064 718.559 155.792C719.207 154.52 719.531 153.044 719.531 151.364C719.531 149.684 719.207 148.22 718.559 146.972C717.911 145.7 717.011 144.728 715.859 144.056C714.707 143.384 713.375 143.048 711.863 143.048C710.351 143.048 709.007 143.384 707.831 144.056C706.679 144.728 705.779 145.7 705.131 146.972C704.483 148.22 704.159 149.684 704.159 151.364C704.159 153.044 704.483 154.52 705.131 155.792C705.779 157.064 706.679 158.048 707.831 158.744C709.007 159.416 710.351 159.752 711.863 159.752ZM741.424 164L735.88 154.208H733.504V164H728.464V138.872H737.896C739.84 138.872 741.496 139.22 742.864 139.916C744.232 140.588 745.252 141.512 745.924 142.688C746.62 143.84 746.968 145.136 746.968 146.576C746.968 148.232 746.488 149.732 745.528 151.076C744.568 152.396 743.14 153.308 741.244 153.812L747.256 164H741.424ZM733.504 150.428H737.716C739.084 150.428 740.104 150.104 740.776 149.456C741.448 148.784 741.784 147.86 741.784 146.684C741.784 145.532 741.448 144.644 740.776 144.02C740.104 143.372 739.084 143.048 737.716 143.048H733.504V150.428ZM765.711 164L756.567 152.804V164H751.527V138.872H756.567V150.14L765.711 138.872H771.795L761.427 151.328L772.083 164H765.711Z" fill="white"/>
<path d="M442.312 153.38H435.508V160.364H430.756V153.38H423.952V148.988H430.756V142.004H435.508V148.988H442.312V153.38Z" fill="#63AEE2"/>
<path d="M489.908 138.872L482.888 164H476.948L472.232 146.108L467.3 164L461.396 164.036L454.628 138.872H460.028L464.456 158.384L469.568 138.872H475.184L480.008 158.276L484.472 138.872H489.908ZM504.863 164.252C502.511 164.252 500.351 163.7 498.383 162.596C496.415 161.492 494.855 159.968 493.703 158.024C492.551 156.056 491.975 153.836 491.975 151.364C491.975 148.916 492.551 146.72 493.703 144.776C494.855 142.808 496.415 141.272 498.383 140.168C500.351 139.064 502.511 138.512 504.863 138.512C507.239 138.512 509.399 139.064 511.343 140.168C513.311 141.272 514.859 142.808 515.987 144.776C517.139 146.72 517.715 148.916 517.715 151.364C517.715 153.836 517.139 156.056 515.987 158.024C514.859 159.968 513.311 161.492 511.343 162.596C509.375 163.7 507.215 164.252 504.863 164.252ZM504.863 159.752C506.375 159.752 507.707 159.416 508.859 158.744C510.011 158.048 510.911 157.064 511.559 155.792C512.207 154.52 512.531 153.044 512.531 151.364C512.531 149.684 512.207 148.22 511.559 146.972C510.911 145.7 510.011 144.728 508.859 144.056C507.707 143.384 506.375 143.048 504.863 143.048C503.351 143.048 502.007 143.384 500.831 144.056C499.679 144.728 498.779 145.7 498.131 146.972C497.483 148.22 497.159 149.684 497.159 151.364C497.159 153.044 497.483 154.52 498.131 155.792C498.779 157.064 499.679 158.048 500.831 158.744C502.007 159.416 503.351 159.752 504.863 159.752ZM534.424 164L528.88 154.208H526.504V164H521.464V138.872H530.896C532.84 138.872 534.496 139.22 535.864 139.916C537.232 140.588 538.252 141.512 538.924 142.688C539.62 143.84 539.968 145.136 539.968 146.576C539.968 148.232 539.488 149.732 538.528 151.076C537.568 152.396 536.14 153.308 534.244 153.812L540.256 164H534.424ZM526.504 150.428H530.716C532.084 150.428 533.104 150.104 533.776 149.456C534.448 148.784 534.784 147.86 534.784 146.684C534.784 145.532 534.448 144.644 533.776 144.02C533.104 143.372 532.084 143.048 530.716 143.048H526.504V150.428ZM558.711 164L549.567 152.804V164H544.527V138.872H549.567V150.14L558.711 138.872H564.795L554.427 151.328L565.083 164H558.711Z" fill="white"/>
<path d="M234.312 153.38H227.508V160.364H222.756V153.38H215.952V148.988H222.756V142.004H227.508V148.988H234.312V153.38Z" fill="#63AEE2"/>
<path d="M281.908 138.872L274.888 164H268.948L264.232 146.108L259.3 164L253.396 164.036L246.628 138.872H252.028L256.456 158.384L261.568 138.872H267.184L272.008 158.276L276.472 138.872H281.908ZM296.863 164.252C294.511 164.252 292.351 163.7 290.383 162.596C288.415 161.492 286.855 159.968 285.703 158.024C284.551 156.056 283.975 153.836 283.975 151.364C283.975 148.916 284.551 146.72 285.703 144.776C286.855 142.808 288.415 141.272 290.383 140.168C292.351 139.064 294.511 138.512 296.863 138.512C299.239 138.512 301.399 139.064 303.343 140.168C305.311 141.272 306.859 142.808 307.987 144.776C309.139 146.72 309.715 148.916 309.715 151.364C309.715 153.836 309.139 156.056 307.987 158.024C306.859 159.968 305.311 161.492 303.343 162.596C301.375 163.7 299.215 164.252 296.863 164.252ZM296.863 159.752C298.375 159.752 299.707 159.416 300.859 158.744C302.011 158.048 302.911 157.064 303.559 155.792C304.207 154.52 304.531 153.044 304.531 151.364C304.531 149.684 304.207 148.22 303.559 146.972C302.911 145.7 302.011 144.728 300.859 144.056C299.707 143.384 298.375 143.048 296.863 143.048C295.351 143.048 294.007 143.384 292.831 144.056C291.679 144.728 290.779 145.7 290.131 146.972C289.483 148.22 289.159 149.684 289.159 151.364C289.159 153.044 289.483 154.52 290.131 155.792C290.779 157.064 291.679 158.048 292.831 158.744C294.007 159.416 295.351 159.752 296.863 159.752ZM326.424 164L320.88 154.208H318.504V164H313.464V138.872H322.896C324.84 138.872 326.496 139.22 327.864 139.916C329.232 140.588 330.252 141.512 330.924 142.688C331.62 143.84 331.968 145.136 331.968 146.576C331.968 148.232 331.488 149.732 330.528 151.076C329.568 152.396 328.14 153.308 326.244 153.812L332.256 164H326.424ZM318.504 150.428H322.716C324.084 150.428 325.104 150.104 325.776 149.456C326.448 148.784 326.784 147.86 326.784 146.684C326.784 145.532 326.448 144.644 325.776 144.02C325.104 143.372 324.084 143.048 322.716 143.048H318.504V150.428ZM350.711 164L341.567 152.804V164H336.527V138.872H341.567V150.14L350.711 138.872H356.795L346.427 151.328L357.083 164H350.711Z" fill="white"/>
<path d="M32.312 153.38H25.508V160.364H20.756V153.38H13.952V148.988H20.756V142.004H25.508V148.988H32.312V153.38Z" fill="#63AEE2"/>
<path d="M79.9079 138.872L72.8879 164H66.9479L62.2319 146.108L57.2999 164L51.3959 164.036L44.6279 138.872H50.0279L54.4559 158.384L59.5679 138.872H65.1839L70.0079 158.276L74.4719 138.872H79.9079ZM94.8628 164.252C92.5108 164.252 90.3508 163.7 88.3828 162.596C86.4148 161.492 84.8548 159.968 83.7028 158.024C82.5508 156.056 81.9748 153.836 81.9748 151.364C81.9748 148.916 82.5508 146.72 83.7028 144.776C84.8548 142.808 86.4148 141.272 88.3828 140.168C90.3508 139.064 92.5108 138.512 94.8628 138.512C97.2388 138.512 99.3988 139.064 101.343 140.168C103.311 141.272 104.859 142.808 105.987 144.776C107.139 146.72 107.715 148.916 107.715 151.364C107.715 153.836 107.139 156.056 105.987 158.024C104.859 159.968 103.311 161.492 101.343 162.596C99.3748 163.7 97.2148 164.252 94.8628 164.252ZM94.8628 159.752C96.3748 159.752 97.7068 159.416 98.8588 158.744C100.011 158.048 100.911 157.064 101.559 155.792C102.207 154.52 102.531 153.044 102.531 151.364C102.531 149.684 102.207 148.22 101.559 146.972C100.911 145.7 100.011 144.728 98.8588 144.056C97.7068 143.384 96.3748 143.048 94.8628 143.048C93.3508 143.048 92.0068 143.384 90.8308 144.056C89.6788 144.728 88.7788 145.7 88.1308 146.972C87.4828 148.22 87.1588 149.684 87.1588 151.364C87.1588 153.044 87.4828 154.52 88.1308 155.792C88.7788 157.064 89.6788 158.048 90.8308 158.744C92.0068 159.416 93.3508 159.752 94.8628 159.752ZM124.424 164L118.88 154.208H116.504V164H111.464V138.872H120.896C122.84 138.872 124.496 139.22 125.864 139.916C127.232 140.588 128.252 141.512 128.924 142.688C129.62 143.84 129.968 145.136 129.968 146.576C129.968 148.232 129.488 149.732 128.528 151.076C127.568 152.396 126.14 153.308 124.244 153.812L130.256 164H124.424ZM116.504 150.428H120.716C122.084 150.428 123.104 150.104 123.776 149.456C124.448 148.784 124.784 147.86 124.784 146.684C124.784 145.532 124.448 144.644 123.776 144.02C123.104 143.372 122.084 143.048 120.716 143.048H116.504V150.428ZM148.711 164L139.567 152.804V164H134.527V138.872H139.567V150.14L148.711 138.872H154.795L144.427 151.328L155.083 164H148.711Z" fill="white"/>
<path d="M1247.31 53.38H1240.51V60.364H1235.76V53.38H1228.95V48.988H1235.76V42.004H1240.51V48.988H1247.31V53.38Z" fill="#63AEE2"/>
<path d="M1294.91 38.872L1287.89 64H1281.95L1277.23 46.108L1272.3 64L1266.4 64.036L1259.63 38.872H1265.03L1269.46 58.384L1274.57 38.872H1280.18L1285.01 58.276L1289.47 38.872H1294.91ZM1309.86 64.252C1307.51 64.252 1305.35 63.7 1303.38 62.596C1301.41 61.492 1299.85 59.968 1298.7 58.024C1297.55 56.056 1296.97 53.836 1296.97 51.364C1296.97 48.916 1297.55 46.72 1298.7 44.776C1299.85 42.808 1301.41 41.272 1303.38 40.168C1305.35 39.064 1307.51 38.512 1309.86 38.512C1312.24 38.512 1314.4 39.064 1316.34 40.168C1318.31 41.272 1319.86 42.808 1320.99 44.776C1322.14 46.72 1322.71 48.916 1322.71 51.364C1322.71 53.836 1322.14 56.056 1320.99 58.024C1319.86 59.968 1318.31 61.492 1316.34 62.596C1314.37 63.7 1312.21 64.252 1309.86 64.252ZM1309.86 59.752C1311.37 59.752 1312.71 59.416 1313.86 58.744C1315.01 58.048 1315.91 57.064 1316.56 55.792C1317.21 54.52 1317.53 53.044 1317.53 51.364C1317.53 49.684 1317.21 48.22 1316.56 46.972C1315.91 45.7 1315.01 44.728 1313.86 44.056C1312.71 43.384 1311.37 43.048 1309.86 43.048C1308.35 43.048 1307.01 43.384 1305.83 44.056C1304.68 44.728 1303.78 45.7 1303.13 46.972C1302.48 48.22 1302.16 49.684 1302.16 51.364C1302.16 53.044 1302.48 54.52 1303.13 55.792C1303.78 57.064 1304.68 58.048 1305.83 58.744C1307.01 59.416 1308.35 59.752 1309.86 59.752ZM1339.42 64L1333.88 54.208H1331.5V64H1326.46V38.872H1335.9C1337.84 38.872 1339.5 39.22 1340.86 39.916C1342.23 40.588 1343.25 41.512 1343.92 42.688C1344.62 43.84 1344.97 45.136 1344.97 46.576C1344.97 48.232 1344.49 49.732 1343.53 51.076C1342.57 52.396 1341.14 53.308 1339.24 53.812L1345.26 64H1339.42ZM1331.5 50.428H1335.72C1337.08 50.428 1338.1 50.104 1338.78 49.456C1339.45 48.784 1339.78 47.86 1339.78 46.684C1339.78 45.532 1339.45 44.644 1338.78 44.02C1338.1 43.372 1337.08 43.048 1335.72 43.048H1331.5V50.428ZM1363.71 64L1354.57 52.804V64H1349.53V38.872H1354.57V50.14L1363.71 38.872H1369.79L1359.43 51.328L1370.08 64H1363.71Z" fill="white"/>
<path d="M1247.31 153.38H1240.51V160.364H1235.76V153.38H1228.95V148.988H1235.76V142.004H1240.51V148.988H1247.31V153.38Z" fill="#63AEE2"/>
<path d="M1294.91 138.872L1287.89 164H1281.95L1277.23 146.108L1272.3 164L1266.4 164.036L1259.63 138.872H1265.03L1269.46 158.384L1274.57 138.872H1280.18L1285.01 158.276L1289.47 138.872H1294.91ZM1309.86 164.252C1307.51 164.252 1305.35 163.7 1303.38 162.596C1301.41 161.492 1299.85 159.968 1298.7 158.024C1297.55 156.056 1296.97 153.836 1296.97 151.364C1296.97 148.916 1297.55 146.72 1298.7 144.776C1299.85 142.808 1301.41 141.272 1303.38 140.168C1305.35 139.064 1307.51 138.512 1309.86 138.512C1312.24 138.512 1314.4 139.064 1316.34 140.168C1318.31 141.272 1319.86 142.808 1320.99 144.776C1322.14 146.72 1322.71 148.916 1322.71 151.364C1322.71 153.836 1322.14 156.056 1320.99 158.024C1319.86 159.968 1318.31 161.492 1316.34 162.596C1314.37 163.7 1312.21 164.252 1309.86 164.252ZM1309.86 159.752C1311.37 159.752 1312.71 159.416 1313.86 158.744C1315.01 158.048 1315.91 157.064 1316.56 155.792C1317.21 154.52 1317.53 153.044 1317.53 151.364C1317.53 149.684 1317.21 148.22 1316.56 146.972C1315.91 145.7 1315.01 144.728 1313.86 144.056C1312.71 143.384 1311.37 143.048 1309.86 143.048C1308.35 143.048 1307.01 143.384 1305.83 144.056C1304.68 144.728 1303.78 145.7 1303.13 146.972C1302.48 148.22 1302.16 149.684 1302.16 151.364C1302.16 153.044 1302.48 154.52 1303.13 155.792C1303.78 157.064 1304.68 158.048 1305.83 158.744C1307.01 159.416 1308.35 159.752 1309.86 159.752ZM1339.42 164L1333.88 154.208H1331.5V164H1326.46V138.872H1335.9C1337.84 138.872 1339.5 139.22 1340.86 139.916C1342.23 140.588 1343.25 141.512 1343.92 142.688C1344.62 143.84 1344.97 145.136 1344.97 146.576C1344.97 148.232 1344.49 149.732 1343.53 151.076C1342.57 152.396 1341.14 153.308 1339.24 153.812L1345.26 164H1339.42ZM1331.5 150.428H1335.72C1337.08 150.428 1338.1 150.104 1338.78 149.456C1339.45 148.784 1339.78 147.86 1339.78 146.684C1339.78 145.532 1339.45 144.644 1338.78 144.02C1338.1 143.372 1337.08 143.048 1335.72 143.048H1331.5V150.428ZM1363.71 164L1354.57 152.804V164H1349.53V138.872H1354.57V150.14L1363.71 138.872H1369.79L1359.43 151.328L1370.08 164H1363.71Z" fill="white"/>
<path d="M1063.31 53.38H1056.51V60.364H1051.76V53.38H1044.95V48.988H1051.76V42.004H1056.51V48.988H1063.31V53.38Z" fill="#63AEE2"/>
<path d="M1110.91 38.872L1103.89 64H1097.95L1093.23 46.108L1088.3 64L1082.4 64.036L1075.63 38.872H1081.03L1085.46 58.384L1090.57 38.872H1096.18L1101.01 58.276L1105.47 38.872H1110.91ZM1125.86 64.252C1123.51 64.252 1121.35 63.7 1119.38 62.596C1117.41 61.492 1115.85 59.968 1114.7 58.024C1113.55 56.056 1112.97 53.836 1112.97 51.364C1112.97 48.916 1113.55 46.72 1114.7 44.776C1115.85 42.808 1117.41 41.272 1119.38 40.168C1121.35 39.064 1123.51 38.512 1125.86 38.512C1128.24 38.512 1130.4 39.064 1132.34 40.168C1134.31 41.272 1135.86 42.808 1136.99 44.776C1138.14 46.72 1138.71 48.916 1138.71 51.364C1138.71 53.836 1138.14 56.056 1136.99 58.024C1135.86 59.968 1134.31 61.492 1132.34 62.596C1130.37 63.7 1128.21 64.252 1125.86 64.252ZM1125.86 59.752C1127.37 59.752 1128.71 59.416 1129.86 58.744C1131.01 58.048 1131.91 57.064 1132.56 55.792C1133.21 54.52 1133.53 53.044 1133.53 51.364C1133.53 49.684 1133.21 48.22 1132.56 46.972C1131.91 45.7 1131.01 44.728 1129.86 44.056C1128.71 43.384 1127.37 43.048 1125.86 43.048C1124.35 43.048 1123.01 43.384 1121.83 44.056C1120.68 44.728 1119.78 45.7 1119.13 46.972C1118.48 48.22 1118.16 49.684 1118.16 51.364C1118.16 53.044 1118.48 54.52 1119.13 55.792C1119.78 57.064 1120.68 58.048 1121.83 58.744C1123.01 59.416 1124.35 59.752 1125.86 59.752ZM1155.42 64L1149.88 54.208H1147.5V64H1142.46V38.872H1151.9C1153.84 38.872 1155.5 39.22 1156.86 39.916C1158.23 40.588 1159.25 41.512 1159.92 42.688C1160.62 43.84 1160.97 45.136 1160.97 46.576C1160.97 48.232 1160.49 49.732 1159.53 51.076C1158.57 52.396 1157.14 53.308 1155.24 53.812L1161.26 64H1155.42ZM1147.5 50.428H1151.72C1153.08 50.428 1154.1 50.104 1154.78 49.456C1155.45 48.784 1155.78 47.86 1155.78 46.684C1155.78 45.532 1155.45 44.644 1154.78 44.02C1154.1 43.372 1153.08 43.048 1151.72 43.048H1147.5V50.428ZM1179.71 64L1170.57 52.804V64H1165.53V38.872H1170.57V50.14L1179.71 38.872H1185.79L1175.43 51.328L1186.08 64H1179.71Z" fill="white"/>
<path d="M856.312 53.38H849.508V60.364H844.756V53.38H837.952V48.988H844.756V42.004H849.508V48.988H856.312V53.38Z" fill="#63AEE2"/>
<path d="M903.908 38.872L896.888 64H890.948L886.232 46.108L881.3 64L875.396 64.036L868.628 38.872H874.028L878.456 58.384L883.568 38.872H889.184L894.008 58.276L898.472 38.872H903.908ZM918.863 64.252C916.511 64.252 914.351 63.7 912.383 62.596C910.415 61.492 908.855 59.968 907.703 58.024C906.551 56.056 905.975 53.836 905.975 51.364C905.975 48.916 906.551 46.72 907.703 44.776C908.855 42.808 910.415 41.272 912.383 40.168C914.351 39.064 916.511 38.512 918.863 38.512C921.239 38.512 923.399 39.064 925.343 40.168C927.311 41.272 928.859 42.808 929.987 44.776C931.139 46.72 931.715 48.916 931.715 51.364C931.715 53.836 931.139 56.056 929.987 58.024C928.859 59.968 927.311 61.492 925.343 62.596C923.375 63.7 921.215 64.252 918.863 64.252ZM918.863 59.752C920.375 59.752 921.707 59.416 922.859 58.744C924.011 58.048 924.911 57.064 925.559 55.792C926.207 54.52 926.531 53.044 926.531 51.364C926.531 49.684 926.207 48.22 925.559 46.972C924.911 45.7 924.011 44.728 922.859 44.056C921.707 43.384 920.375 43.048 918.863 43.048C917.351 43.048 916.007 43.384 914.831 44.056C913.679 44.728 912.779 45.7 912.131 46.972C911.483 48.22 911.159 49.684 911.159 51.364C911.159 53.044 911.483 54.52 912.131 55.792C912.779 57.064 913.679 58.048 914.831 58.744C916.007 59.416 917.351 59.752 918.863 59.752ZM948.424 64L942.88 54.208H940.504V64H935.464V38.872H944.896C946.84 38.872 948.496 39.22 949.864 39.916C951.232 40.588 952.252 41.512 952.924 42.688C953.62 43.84 953.968 45.136 953.968 46.576C953.968 48.232 953.488 49.732 952.528 51.076C951.568 52.396 950.14 53.308 948.244 53.812L954.256 64H948.424ZM940.504 50.428H944.716C946.084 50.428 947.104 50.104 947.776 49.456C948.448 48.784 948.784 47.86 948.784 46.684C948.784 45.532 948.448 44.644 947.776 44.02C947.104 43.372 946.084 43.048 944.716 43.048H940.504V50.428ZM972.711 64L963.567 52.804V64H958.527V38.872H963.567V50.14L972.711 38.872H978.795L968.427 51.328L979.083 64H972.711Z" fill="white"/>
<path d="M649.312 53.38H642.508V60.364H637.756V53.38H630.952V48.988H637.756V42.004H642.508V48.988H649.312V53.38Z" fill="#63AEE2"/>
<path d="M696.908 38.872L689.888 64H683.948L679.232 46.108L674.3 64L668.396 64.036L661.628 38.872H667.028L671.456 58.384L676.568 38.872H682.184L687.008 58.276L691.472 38.872H696.908ZM711.863 64.252C709.511 64.252 707.351 63.7 705.383 62.596C703.415 61.492 701.855 59.968 700.703 58.024C699.551 56.056 698.975 53.836 698.975 51.364C698.975 48.916 699.551 46.72 700.703 44.776C701.855 42.808 703.415 41.272 705.383 40.168C707.351 39.064 709.511 38.512 711.863 38.512C714.239 38.512 716.399 39.064 718.343 40.168C720.311 41.272 721.859 42.808 722.987 44.776C724.139 46.72 724.715 48.916 724.715 51.364C724.715 53.836 724.139 56.056 722.987 58.024C721.859 59.968 720.311 61.492 718.343 62.596C716.375 63.7 714.215 64.252 711.863 64.252ZM711.863 59.752C713.375 59.752 714.707 59.416 715.859 58.744C717.011 58.048 717.911 57.064 718.559 55.792C719.207 54.52 719.531 53.044 719.531 51.364C719.531 49.684 719.207 48.22 718.559 46.972C717.911 45.7 717.011 44.728 715.859 44.056C714.707 43.384 713.375 43.048 711.863 43.048C710.351 43.048 709.007 43.384 707.831 44.056C706.679 44.728 705.779 45.7 705.131 46.972C704.483 48.22 704.159 49.684 704.159 51.364C704.159 53.044 704.483 54.52 705.131 55.792C705.779 57.064 706.679 58.048 707.831 58.744C709.007 59.416 710.351 59.752 711.863 59.752ZM741.424 64L735.88 54.208H733.504V64H728.464V38.872H737.896C739.84 38.872 741.496 39.22 742.864 39.916C744.232 40.588 745.252 41.512 745.924 42.688C746.62 43.84 746.968 45.136 746.968 46.576C746.968 48.232 746.488 49.732 745.528 51.076C744.568 52.396 743.14 53.308 741.244 53.812L747.256 64H741.424ZM733.504 50.428H737.716C739.084 50.428 740.104 50.104 740.776 49.456C741.448 48.784 741.784 47.86 741.784 46.684C741.784 45.532 741.448 44.644 740.776 44.02C740.104 43.372 739.084 43.048 737.716 43.048H733.504V50.428ZM765.711 64L756.567 52.804V64H751.527V38.872H756.567V50.14L765.711 38.872H771.795L761.427 51.328L772.083 64H765.711Z" fill="white"/>
<path d="M442.312 53.38H435.508V60.364H430.756V53.38H423.952V48.988H430.756V42.004H435.508V48.988H442.312V53.38Z" fill="#63AEE2"/>
<path d="M489.908 38.872L482.888 64H476.948L472.232 46.108L467.3 64L461.396 64.036L454.628 38.872H460.028L464.456 58.384L469.568 38.872H475.184L480.008 58.276L484.472 38.872H489.908ZM504.863 64.252C502.511 64.252 500.351 63.7 498.383 62.596C496.415 61.492 494.855 59.968 493.703 58.024C492.551 56.056 491.975 53.836 491.975 51.364C491.975 48.916 492.551 46.72 493.703 44.776C494.855 42.808 496.415 41.272 498.383 40.168C500.351 39.064 502.511 38.512 504.863 38.512C507.239 38.512 509.399 39.064 511.343 40.168C513.311 41.272 514.859 42.808 515.987 44.776C517.139 46.72 517.715 48.916 517.715 51.364C517.715 53.836 517.139 56.056 515.987 58.024C514.859 59.968 513.311 61.492 511.343 62.596C509.375 63.7 507.215 64.252 504.863 64.252ZM504.863 59.752C506.375 59.752 507.707 59.416 508.859 58.744C510.011 58.048 510.911 57.064 511.559 55.792C512.207 54.52 512.531 53.044 512.531 51.364C512.531 49.684 512.207 48.22 511.559 46.972C510.911 45.7 510.011 44.728 508.859 44.056C507.707 43.384 506.375 43.048 504.863 43.048C503.351 43.048 502.007 43.384 500.831 44.056C499.679 44.728 498.779 45.7 498.131 46.972C497.483 48.22 497.159 49.684 497.159 51.364C497.159 53.044 497.483 54.52 498.131 55.792C498.779 57.064 499.679 58.048 500.831 58.744C502.007 59.416 503.351 59.752 504.863 59.752ZM534.424 64L528.88 54.208H526.504V64H521.464V38.872H530.896C532.84 38.872 534.496 39.22 535.864 39.916C537.232 40.588 538.252 41.512 538.924 42.688C539.62 43.84 539.968 45.136 539.968 46.576C539.968 48.232 539.488 49.732 538.528 51.076C537.568 52.396 536.14 53.308 534.244 53.812L540.256 64H534.424ZM526.504 50.428H530.716C532.084 50.428 533.104 50.104 533.776 49.456C534.448 48.784 534.784 47.86 534.784 46.684C534.784 45.532 534.448 44.644 533.776 44.02C533.104 43.372 532.084 43.048 530.716 43.048H526.504V50.428ZM558.711 64L549.567 52.804V64H544.527V38.872H549.567V50.14L558.711 38.872H564.795L554.427 51.328L565.083 64H558.711Z" fill="white"/>
<path d="M237.312 53.38H230.508V60.364H225.756V53.38H218.952V48.988H225.756V42.004H230.508V48.988H237.312V53.38Z" fill="#63AEE2"/>
<path d="M284.908 38.872L277.888 64H271.948L267.232 46.108L262.3 64L256.396 64.036L249.628 38.872H255.028L259.456 58.384L264.568 38.872H270.184L275.008 58.276L279.472 38.872H284.908ZM299.863 64.252C297.511 64.252 295.351 63.7 293.383 62.596C291.415 61.492 289.855 59.968 288.703 58.024C287.551 56.056 286.975 53.836 286.975 51.364C286.975 48.916 287.551 46.72 288.703 44.776C289.855 42.808 291.415 41.272 293.383 40.168C295.351 39.064 297.511 38.512 299.863 38.512C302.239 38.512 304.399 39.064 306.343 40.168C308.311 41.272 309.859 42.808 310.987 44.776C312.139 46.72 312.715 48.916 312.715 51.364C312.715 53.836 312.139 56.056 310.987 58.024C309.859 59.968 308.311 61.492 306.343 62.596C304.375 63.7 302.215 64.252 299.863 64.252ZM299.863 59.752C301.375 59.752 302.707 59.416 303.859 58.744C305.011 58.048 305.911 57.064 306.559 55.792C307.207 54.52 307.531 53.044 307.531 51.364C307.531 49.684 307.207 48.22 306.559 46.972C305.911 45.7 305.011 44.728 303.859 44.056C302.707 43.384 301.375 43.048 299.863 43.048C298.351 43.048 297.007 43.384 295.831 44.056C294.679 44.728 293.779 45.7 293.131 46.972C292.483 48.22 292.159 49.684 292.159 51.364C292.159 53.044 292.483 54.52 293.131 55.792C293.779 57.064 294.679 58.048 295.831 58.744C297.007 59.416 298.351 59.752 299.863 59.752ZM329.424 64L323.88 54.208H321.504V64H316.464V38.872H325.896C327.84 38.872 329.496 39.22 330.864 39.916C332.232 40.588 333.252 41.512 333.924 42.688C334.62 43.84 334.968 45.136 334.968 46.576C334.968 48.232 334.488 49.732 333.528 51.076C332.568 52.396 331.14 53.308 329.244 53.812L335.256 64H329.424ZM321.504 50.428H325.716C327.084 50.428 328.104 50.104 328.776 49.456C329.448 48.784 329.784 47.86 329.784 46.684C329.784 45.532 329.448 44.644 328.776 44.02C328.104 43.372 327.084 43.048 325.716 43.048H321.504V50.428ZM353.711 64L344.567 52.804V64H339.527V38.872H344.567V50.14L353.711 38.872H359.795L349.427 51.328L360.083 64H353.711Z" fill="white"/>
<path d="M32.312 53.38H25.508V60.364H20.756V53.38H13.952V48.988H20.756V42.004H25.508V48.988H32.312V53.38Z" fill="#63AEE2"/>
<path d="M79.9079 38.872L72.8879 64H66.9479L62.2319 46.108L57.2999 64L51.3959 64.036L44.6279 38.872H50.0279L54.4559 58.384L59.5679 38.872H65.1839L70.0079 58.276L74.4719 38.872H79.9079ZM94.8628 64.252C92.5108 64.252 90.3508 63.7 88.3828 62.596C86.4148 61.492 84.8548 59.968 83.7028 58.024C82.5508 56.056 81.9748 53.836 81.9748 51.364C81.9748 48.916 82.5508 46.72 83.7028 44.776C84.8548 42.808 86.4148 41.272 88.3828 40.168C90.3508 39.064 92.5108 38.512 94.8628 38.512C97.2388 38.512 99.3988 39.064 101.343 40.168C103.311 41.272 104.859 42.808 105.987 44.776C107.139 46.72 107.715 48.916 107.715 51.364C107.715 53.836 107.139 56.056 105.987 58.024C104.859 59.968 103.311 61.492 101.343 62.596C99.3748 63.7 97.2148 64.252 94.8628 64.252ZM94.8628 59.752C96.3748 59.752 97.7068 59.416 98.8588 58.744C100.011 58.048 100.911 57.064 101.559 55.792C102.207 54.52 102.531 53.044 102.531 51.364C102.531 49.684 102.207 48.22 101.559 46.972C100.911 45.7 100.011 44.728 98.8588 44.056C97.7068 43.384 96.3748 43.048 94.8628 43.048C93.3508 43.048 92.0068 43.384 90.8308 44.056C89.6788 44.728 88.7788 45.7 88.1308 46.972C87.4828 48.22 87.1588 49.684 87.1588 51.364C87.1588 53.044 87.4828 54.52 88.1308 55.792C88.7788 57.064 89.6788 58.048 90.8308 58.744C92.0068 59.416 93.3508 59.752 94.8628 59.752ZM124.424 64L118.88 54.208H116.504V64H111.464V38.872H120.896C122.84 38.872 124.496 39.22 125.864 39.916C127.232 40.588 128.252 41.512 128.924 42.688C129.62 43.84 129.968 45.136 129.968 46.576C129.968 48.232 129.488 49.732 128.528 51.076C127.568 52.396 126.14 53.308 124.244 53.812L130.256 64H124.424ZM116.504 50.428H120.716C122.084 50.428 123.104 50.104 123.776 49.456C124.448 48.784 124.784 47.86 124.784 46.684C124.784 45.532 124.448 44.644 123.776 44.02C123.104 43.372 122.084 43.048 120.716 43.048H116.504V50.428ZM148.711 64L139.567 52.804V64H134.527V38.872H139.567V50.14L148.711 38.872H154.795L144.427 51.328L155.083 64H148.711Z" fill="white"/>
<path d="M1247.31 242.38H1240.51V249.364H1235.76V242.38H1228.95V237.988H1235.76V231.004H1240.51V237.988H1247.31V242.38Z" fill="#63AEE2"/>
<path d="M1294.91 227.872L1287.89 253H1281.95L1277.23 235.108L1272.3 253L1266.4 253.036L1259.63 227.872H1265.03L1269.46 247.384L1274.57 227.872H1280.18L1285.01 247.276L1289.47 227.872H1294.91ZM1309.86 253.252C1307.51 253.252 1305.35 252.7 1303.38 251.596C1301.41 250.492 1299.85 248.968 1298.7 247.024C1297.55 245.056 1296.97 242.836 1296.97 240.364C1296.97 237.916 1297.55 235.72 1298.7 233.776C1299.85 231.808 1301.41 230.272 1303.38 229.168C1305.35 228.064 1307.51 227.512 1309.86 227.512C1312.24 227.512 1314.4 228.064 1316.34 229.168C1318.31 230.272 1319.86 231.808 1320.99 233.776C1322.14 235.72 1322.71 237.916 1322.71 240.364C1322.71 242.836 1322.14 245.056 1320.99 247.024C1319.86 248.968 1318.31 250.492 1316.34 251.596C1314.37 252.7 1312.21 253.252 1309.86 253.252ZM1309.86 248.752C1311.37 248.752 1312.71 248.416 1313.86 247.744C1315.01 247.048 1315.91 246.064 1316.56 244.792C1317.21 243.52 1317.53 242.044 1317.53 240.364C1317.53 238.684 1317.21 237.22 1316.56 235.972C1315.91 234.7 1315.01 233.728 1313.86 233.056C1312.71 232.384 1311.37 232.048 1309.86 232.048C1308.35 232.048 1307.01 232.384 1305.83 233.056C1304.68 233.728 1303.78 234.7 1303.13 235.972C1302.48 237.22 1302.16 238.684 1302.16 240.364C1302.16 242.044 1302.48 243.52 1303.13 244.792C1303.78 246.064 1304.68 247.048 1305.83 247.744C1307.01 248.416 1308.35 248.752 1309.86 248.752ZM1339.42 253L1333.88 243.208H1331.5V253H1326.46V227.872H1335.9C1337.84 227.872 1339.5 228.22 1340.86 228.916C1342.23 229.588 1343.25 230.512 1343.92 231.688C1344.62 232.84 1344.97 234.136 1344.97 235.576C1344.97 237.232 1344.49 238.732 1343.53 240.076C1342.57 241.396 1341.14 242.308 1339.24 242.812L1345.26 253H1339.42ZM1331.5 239.428H1335.72C1337.08 239.428 1338.1 239.104 1338.78 238.456C1339.45 237.784 1339.78 236.86 1339.78 235.684C1339.78 234.532 1339.45 233.644 1338.78 233.02C1338.1 232.372 1337.08 232.048 1335.72 232.048H1331.5V239.428ZM1363.71 253L1354.57 241.804V253H1349.53V227.872H1354.57V239.14L1363.71 227.872H1369.79L1359.43 240.328L1370.08 253H1363.71Z" fill="white"/>
<path d="M1063.31 242.38H1056.51V249.364H1051.76V242.38H1044.95V237.988H1051.76V231.004H1056.51V237.988H1063.31V242.38Z" fill="#63AEE2"/>
<path d="M1110.91 227.872L1103.89 253H1097.95L1093.23 235.108L1088.3 253L1082.4 253.036L1075.63 227.872H1081.03L1085.46 247.384L1090.57 227.872H1096.18L1101.01 247.276L1105.47 227.872H1110.91ZM1125.86 253.252C1123.51 253.252 1121.35 252.7 1119.38 251.596C1117.41 250.492 1115.85 248.968 1114.7 247.024C1113.55 245.056 1112.97 242.836 1112.97 240.364C1112.97 237.916 1113.55 235.72 1114.7 233.776C1115.85 231.808 1117.41 230.272 1119.38 229.168C1121.35 228.064 1123.51 227.512 1125.86 227.512C1128.24 227.512 1130.4 228.064 1132.34 229.168C1134.31 230.272 1135.86 231.808 1136.99 233.776C1138.14 235.72 1138.71 237.916 1138.71 240.364C1138.71 242.836 1138.14 245.056 1136.99 247.024C1135.86 248.968 1134.31 250.492 1132.34 251.596C1130.37 252.7 1128.21 253.252 1125.86 253.252ZM1125.86 248.752C1127.37 248.752 1128.71 248.416 1129.86 247.744C1131.01 247.048 1131.91 246.064 1132.56 244.792C1133.21 243.52 1133.53 242.044 1133.53 240.364C1133.53 238.684 1133.21 237.22 1132.56 235.972C1131.91 234.7 1131.01 233.728 1129.86 233.056C1128.71 232.384 1127.37 232.048 1125.86 232.048C1124.35 232.048 1123.01 232.384 1121.83 233.056C1120.68 233.728 1119.78 234.7 1119.13 235.972C1118.48 237.22 1118.16 238.684 1118.16 240.364C1118.16 242.044 1118.48 243.52 1119.13 244.792C1119.78 246.064 1120.68 247.048 1121.83 247.744C1123.01 248.416 1124.35 248.752 1125.86 248.752ZM1155.42 253L1149.88 243.208H1147.5V253H1142.46V227.872H1151.9C1153.84 227.872 1155.5 228.22 1156.86 228.916C1158.23 229.588 1159.25 230.512 1159.92 231.688C1160.62 232.84 1160.97 234.136 1160.97 235.576C1160.97 237.232 1160.49 238.732 1159.53 240.076C1158.57 241.396 1157.14 242.308 1155.24 242.812L1161.26 253H1155.42ZM1147.5 239.428H1151.72C1153.08 239.428 1154.1 239.104 1154.78 238.456C1155.45 237.784 1155.78 236.86 1155.78 235.684C1155.78 234.532 1155.45 233.644 1154.78 233.02C1154.1 232.372 1153.08 232.048 1151.72 232.048H1147.5V239.428ZM1179.71 253L1170.57 241.804V253H1165.53V227.872H1170.57V239.14L1179.71 227.872H1185.79L1175.43 240.328L1186.08 253H1179.71Z" fill="white"/>
<path d="M856.312 242.38H849.508V249.364H844.756V242.38H837.952V237.988H844.756V231.004H849.508V237.988H856.312V242.38Z" fill="#63AEE2"/>
<path d="M903.908 227.872L896.888 253H890.948L886.232 235.108L881.3 253L875.396 253.036L868.628 227.872H874.028L878.456 247.384L883.568 227.872H889.184L894.008 247.276L898.472 227.872H903.908ZM918.863 253.252C916.511 253.252 914.351 252.7 912.383 251.596C910.415 250.492 908.855 248.968 907.703 247.024C906.551 245.056 905.975 242.836 905.975 240.364C905.975 237.916 906.551 235.72 907.703 233.776C908.855 231.808 910.415 230.272 912.383 229.168C914.351 228.064 916.511 227.512 918.863 227.512C921.239 227.512 923.399 228.064 925.343 229.168C927.311 230.272 928.859 231.808 929.987 233.776C931.139 235.72 931.715 237.916 931.715 240.364C931.715 242.836 931.139 245.056 929.987 247.024C928.859 248.968 927.311 250.492 925.343 251.596C923.375 252.7 921.215 253.252 918.863 253.252ZM918.863 248.752C920.375 248.752 921.707 248.416 922.859 247.744C924.011 247.048 924.911 246.064 925.559 244.792C926.207 243.52 926.531 242.044 926.531 240.364C926.531 238.684 926.207 237.22 925.559 235.972C924.911 234.7 924.011 233.728 922.859 233.056C921.707 232.384 920.375 232.048 918.863 232.048C917.351 232.048 916.007 232.384 914.831 233.056C913.679 233.728 912.779 234.7 912.131 235.972C911.483 237.22 911.159 238.684 911.159 240.364C911.159 242.044 911.483 243.52 912.131 244.792C912.779 246.064 913.679 247.048 914.831 247.744C916.007 248.416 917.351 248.752 918.863 248.752ZM948.424 253L942.88 243.208H940.504V253H935.464V227.872H944.896C946.84 227.872 948.496 228.22 949.864 228.916C951.232 229.588 952.252 230.512 952.924 231.688C953.62 232.84 953.968 234.136 953.968 235.576C953.968 237.232 953.488 238.732 952.528 240.076C951.568 241.396 950.14 242.308 948.244 242.812L954.256 253H948.424ZM940.504 239.428H944.716C946.084 239.428 947.104 239.104 947.776 238.456C948.448 237.784 948.784 236.86 948.784 235.684C948.784 234.532 948.448 233.644 947.776 233.02C947.104 232.372 946.084 232.048 944.716 232.048H940.504V239.428ZM972.711 253L963.567 241.804V253H958.527V227.872H963.567V239.14L972.711 227.872H978.795L968.427 240.328L979.083 253H972.711Z" fill="white"/>
<path d="M649.312 242.38H642.508V249.364H637.756V242.38H630.952V237.988H637.756V231.004H642.508V237.988H649.312V242.38Z" fill="#63AEE2"/>
<path d="M696.908 227.872L689.888 253H683.948L679.232 235.108L674.3 253L668.396 253.036L661.628 227.872H667.028L671.456 247.384L676.568 227.872H682.184L687.008 247.276L691.472 227.872H696.908ZM711.863 253.252C709.511 253.252 707.351 252.7 705.383 251.596C703.415 250.492 701.855 248.968 700.703 247.024C699.551 245.056 698.975 242.836 698.975 240.364C698.975 237.916 699.551 235.72 700.703 233.776C701.855 231.808 703.415 230.272 705.383 229.168C707.351 228.064 709.511 227.512 711.863 227.512C714.239 227.512 716.399 228.064 718.343 229.168C720.311 230.272 721.859 231.808 722.987 233.776C724.139 235.72 724.715 237.916 724.715 240.364C724.715 242.836 724.139 245.056 722.987 247.024C721.859 248.968 720.311 250.492 718.343 251.596C716.375 252.7 714.215 253.252 711.863 253.252ZM711.863 248.752C713.375 248.752 714.707 248.416 715.859 247.744C717.011 247.048 717.911 246.064 718.559 244.792C719.207 243.52 719.531 242.044 719.531 240.364C719.531 238.684 719.207 237.22 718.559 235.972C717.911 234.7 717.011 233.728 715.859 233.056C714.707 232.384 713.375 232.048 711.863 232.048C710.351 232.048 709.007 232.384 707.831 233.056C706.679 233.728 705.779 234.7 705.131 235.972C704.483 237.22 704.159 238.684 704.159 240.364C704.159 242.044 704.483 243.52 705.131 244.792C705.779 246.064 706.679 247.048 707.831 247.744C709.007 248.416 710.351 248.752 711.863 248.752ZM741.424 253L735.88 243.208H733.504V253H728.464V227.872H737.896C739.84 227.872 741.496 228.22 742.864 228.916C744.232 229.588 745.252 230.512 745.924 231.688C746.62 232.84 746.968 234.136 746.968 235.576C746.968 237.232 746.488 238.732 745.528 240.076C744.568 241.396 743.14 242.308 741.244 242.812L747.256 253H741.424ZM733.504 239.428H737.716C739.084 239.428 740.104 239.104 740.776 238.456C741.448 237.784 741.784 236.86 741.784 235.684C741.784 234.532 741.448 233.644 740.776 233.02C740.104 232.372 739.084 232.048 737.716 232.048H733.504V239.428ZM765.711 253L756.567 241.804V253H751.527V227.872H756.567V239.14L765.711 227.872H771.795L761.427 240.328L772.083 253H765.711Z" fill="white"/>
<path d="M442.312 242.38H435.508V249.364H430.756V242.38H423.952V237.988H430.756V231.004H435.508V237.988H442.312V242.38Z" fill="#63AEE2"/>
<path d="M489.908 227.872L482.888 253H476.948L472.232 235.108L467.3 253L461.396 253.036L454.628 227.872H460.028L464.456 247.384L469.568 227.872H475.184L480.008 247.276L484.472 227.872H489.908ZM504.863 253.252C502.511 253.252 500.351 252.7 498.383 251.596C496.415 250.492 494.855 248.968 493.703 247.024C492.551 245.056 491.975 242.836 491.975 240.364C491.975 237.916 492.551 235.72 493.703 233.776C494.855 231.808 496.415 230.272 498.383 229.168C500.351 228.064 502.511 227.512 504.863 227.512C507.239 227.512 509.399 228.064 511.343 229.168C513.311 230.272 514.859 231.808 515.987 233.776C517.139 235.72 517.715 237.916 517.715 240.364C517.715 242.836 517.139 245.056 515.987 247.024C514.859 248.968 513.311 250.492 511.343 251.596C509.375 252.7 507.215 253.252 504.863 253.252ZM504.863 248.752C506.375 248.752 507.707 248.416 508.859 247.744C510.011 247.048 510.911 246.064 511.559 244.792C512.207 243.52 512.531 242.044 512.531 240.364C512.531 238.684 512.207 237.22 511.559 235.972C510.911 234.7 510.011 233.728 508.859 233.056C507.707 232.384 506.375 232.048 504.863 232.048C503.351 232.048 502.007 232.384 500.831 233.056C499.679 233.728 498.779 234.7 498.131 235.972C497.483 237.22 497.159 238.684 497.159 240.364C497.159 242.044 497.483 243.52 498.131 244.792C498.779 246.064 499.679 247.048 500.831 247.744C502.007 248.416 503.351 248.752 504.863 248.752ZM534.424 253L528.88 243.208H526.504V253H521.464V227.872H530.896C532.84 227.872 534.496 228.22 535.864 228.916C537.232 229.588 538.252 230.512 538.924 231.688C539.62 232.84 539.968 234.136 539.968 235.576C539.968 237.232 539.488 238.732 538.528 240.076C537.568 241.396 536.14 242.308 534.244 242.812L540.256 253H534.424ZM526.504 239.428H530.716C532.084 239.428 533.104 239.104 533.776 238.456C534.448 237.784 534.784 236.86 534.784 235.684C534.784 234.532 534.448 233.644 533.776 233.02C533.104 232.372 532.084 232.048 530.716 232.048H526.504V239.428ZM558.711 253L549.567 241.804V253H544.527V227.872H549.567V239.14L558.711 227.872H564.795L554.427 240.328L565.083 253H558.711Z" fill="white"/>
<path d="M237.312 242.38H230.508V249.364H225.756V242.38H218.952V237.988H225.756V231.004H230.508V237.988H237.312V242.38Z" fill="#63AEE2"/>
<path d="M284.908 227.872L277.888 253H271.948L267.232 235.108L262.3 253L256.396 253.036L249.628 227.872H255.028L259.456 247.384L264.568 227.872H270.184L275.008 247.276L279.472 227.872H284.908ZM299.863 253.252C297.511 253.252 295.351 252.7 293.383 251.596C291.415 250.492 289.855 248.968 288.703 247.024C287.551 245.056 286.975 242.836 286.975 240.364C286.975 237.916 287.551 235.72 288.703 233.776C289.855 231.808 291.415 230.272 293.383 229.168C295.351 228.064 297.511 227.512 299.863 227.512C302.239 227.512 304.399 228.064 306.343 229.168C308.311 230.272 309.859 231.808 310.987 233.776C312.139 235.72 312.715 237.916 312.715 240.364C312.715 242.836 312.139 245.056 310.987 247.024C309.859 248.968 308.311 250.492 306.343 251.596C304.375 252.7 302.215 253.252 299.863 253.252ZM299.863 248.752C301.375 248.752 302.707 248.416 303.859 247.744C305.011 247.048 305.911 246.064 306.559 244.792C307.207 243.52 307.531 242.044 307.531 240.364C307.531 238.684 307.207 237.22 306.559 235.972C305.911 234.7 305.011 233.728 303.859 233.056C302.707 232.384 301.375 232.048 299.863 232.048C298.351 232.048 297.007 232.384 295.831 233.056C294.679 233.728 293.779 234.7 293.131 235.972C292.483 237.22 292.159 238.684 292.159 240.364C292.159 242.044 292.483 243.52 293.131 244.792C293.779 246.064 294.679 247.048 295.831 247.744C297.007 248.416 298.351 248.752 299.863 248.752ZM329.424 253L323.88 243.208H321.504V253H316.464V227.872H325.896C327.84 227.872 329.496 228.22 330.864 228.916C332.232 229.588 333.252 230.512 333.924 231.688C334.62 232.84 334.968 234.136 334.968 235.576C334.968 237.232 334.488 238.732 333.528 240.076C332.568 241.396 331.14 242.308 329.244 242.812L335.256 253H329.424ZM321.504 239.428H325.716C327.084 239.428 328.104 239.104 328.776 238.456C329.448 237.784 329.784 236.86 329.784 235.684C329.784 234.532 329.448 233.644 328.776 233.02C328.104 232.372 327.084 232.048 325.716 232.048H321.504V239.428ZM353.711 253L344.567 241.804V253H339.527V227.872H344.567V239.14L353.711 227.872H359.795L349.427 240.328L360.083 253H353.711Z" fill="white"/>
<path d="M32.312 242.38H25.508V249.364H20.756V242.38H13.952V237.988H20.756V231.004H25.508V237.988H32.312V242.38Z" fill="#63AEE2"/>
<path d="M79.9079 227.872L72.8879 253H66.9479L62.2319 235.108L57.2999 253L51.3959 253.036L44.6279 227.872H50.0279L54.4559 247.384L59.5679 227.872H65.1839L70.0079 247.276L74.4719 227.872H79.9079ZM94.8628 253.252C92.5108 253.252 90.3508 252.7 88.3828 251.596C86.4148 250.492 84.8548 248.968 83.7028 247.024C82.5508 245.056 81.9748 242.836 81.9748 240.364C81.9748 237.916 82.5508 235.72 83.7028 233.776C84.8548 231.808 86.4148 230.272 88.3828 229.168C90.3508 228.064 92.5108 227.512 94.8628 227.512C97.2388 227.512 99.3988 228.064 101.343 229.168C103.311 230.272 104.859 231.808 105.987 233.776C107.139 235.72 107.715 237.916 107.715 240.364C107.715 242.836 107.139 245.056 105.987 247.024C104.859 248.968 103.311 250.492 101.343 251.596C99.3748 252.7 97.2148 253.252 94.8628 253.252ZM94.8628 248.752C96.3748 248.752 97.7068 248.416 98.8588 247.744C100.011 247.048 100.911 246.064 101.559 244.792C102.207 243.52 102.531 242.044 102.531 240.364C102.531 238.684 102.207 237.22 101.559 235.972C100.911 234.7 100.011 233.728 98.8588 233.056C97.7068 232.384 96.3748 232.048 94.8628 232.048C93.3508 232.048 92.0068 232.384 90.8308 233.056C89.6788 233.728 88.7788 234.7 88.1308 235.972C87.4828 237.22 87.1588 238.684 87.1588 240.364C87.1588 242.044 87.4828 243.52 88.1308 244.792C88.7788 246.064 89.6788 247.048 90.8308 247.744C92.0068 248.416 93.3508 248.752 94.8628 248.752ZM124.424 253L118.88 243.208H116.504V253H111.464V227.872H120.896C122.84 227.872 124.496 228.22 125.864 228.916C127.232 229.588 128.252 230.512 128.924 231.688C129.62 232.84 129.968 234.136 129.968 235.576C129.968 237.232 129.488 238.732 128.528 240.076C127.568 241.396 126.14 242.308 124.244 242.812L130.256 253H124.424ZM116.504 239.428H120.716C122.084 239.428 123.104 239.104 123.776 238.456C124.448 237.784 124.784 236.86 124.784 235.684C124.784 234.532 124.448 233.644 123.776 233.02C123.104 232.372 122.084 232.048 120.716 232.048H116.504V239.428ZM148.711 253L139.567 241.804V253H134.527V227.872H139.567V239.14L148.711 227.872H154.795L144.427 240.328L155.083 253H148.711Z" fill="white"/>
</svg>
