<svg width="143" height="27" viewBox="0 0 143 27" fill="none" xmlns="http://www.w3.org/2000/svg">
<path d="M19.312 15.38H12.508V22.364H7.756V15.38H0.952V10.988H7.756V4.004H12.508V10.988H19.312V15.38Z" fill="#63AEE2"/>
<path d="M66.9079 0.872L59.8879 26H53.9479L49.2319 8.108L44.2999 26L38.3959 26.036L31.6279 0.872H37.0279L41.4559 20.384L46.5679 0.872H52.1839L57.0079 20.276L61.4719 0.872H66.9079ZM81.8628 26.252C79.5108 26.252 77.3508 25.7 75.3828 24.596C73.4148 23.492 71.8548 21.968 70.7028 20.024C69.5508 18.056 68.9748 15.836 68.9748 13.364C68.9748 10.916 69.5508 8.72 70.7028 6.776C71.8548 4.808 73.4148 3.272 75.3828 2.168C77.3508 1.064 79.5108 0.512 81.8628 0.512C84.2388 0.512 86.3988 1.064 88.3428 2.168C90.3108 3.272 91.8588 4.808 92.9868 6.776C94.1388 8.72 94.7148 10.916 94.7148 13.364C94.7148 15.836 94.1388 18.056 92.9868 20.024C91.8588 21.968 90.3108 23.492 88.3428 24.596C86.3748 25.7 84.2148 26.252 81.8628 26.252ZM81.8628 21.752C83.3748 21.752 84.7068 21.416 85.8588 20.744C87.0108 20.048 87.9108 19.064 88.5588 17.792C89.2068 16.52 89.5308 15.044 89.5308 13.364C89.5308 11.684 89.2068 10.22 88.5588 8.972C87.9108 7.7 87.0108 6.728 85.8588 6.056C84.7068 5.384 83.3748 5.048 81.8628 5.048C80.3508 5.048 79.0068 5.384 77.8308 6.056C76.6788 6.728 75.7788 7.7 75.1308 8.972C74.4828 10.22 74.1588 11.684 74.1588 13.364C74.1588 15.044 74.4828 16.52 75.1308 17.792C75.7788 19.064 76.6788 20.048 77.8308 20.744C79.0068 21.416 80.3508 21.752 81.8628 21.752ZM111.424 26L105.88 16.208H103.504V26H98.4645V0.872H107.896C109.84 0.872 111.496 1.22 112.864 1.916C114.232 2.588 115.252 3.512 115.924 4.688C116.62 5.84 116.968 7.136 116.968 8.576C116.968 10.232 116.488 11.732 115.528 13.076C114.568 14.396 113.14 15.308 111.244 15.812L117.256 26H111.424ZM103.504 12.428H107.716C109.084 12.428 110.104 12.104 110.776 11.456C111.448 10.784 111.784 9.86 111.784 8.684C111.784 7.532 111.448 6.644 110.776 6.02C110.104 5.372 109.084 5.048 107.716 5.048H103.504V12.428ZM135.711 26L126.567 14.804V26H121.527V0.872H126.567V12.14L135.711 0.872H141.795L131.427 13.328L142.083 26H135.711Z" fill="black"/>
</svg>
